<?xml version="1.0" encoding="UTF-8"?>
<svg width="208px" height="184px" viewBox="0 0 208 184" version="1.1" xmlns="http://www.w3.org/2000/svg" xmlns:xlink="http://www.w3.org/1999/xlink">
    <!-- Generator: Sketch 49 (51002) - http://www.bohemiancoding.com/sketch -->
    <title>default-image</title>
    <desc>Created with Sketch.</desc>
    <defs></defs>
    <g id="Page-1" stroke="none" stroke-width="1" fill="none" fill-rule="evenodd">
        <g id="default-image">
            <g id="faded" fill="#E8F6F8" fill-rule="nonzero">
                <path d="M149,101 L153,101 L153,105 L149,105 L149,101 Z M141,101 L145,101 L145,105 L141,105 L141,101 Z M133,101 L137,101 L137,105 L133,105 L133,101 Z M181,141 L133,141 L133,109 L181,109 L181,141 Z M181,105 L157,105 L157,101 L181,101 L181,105 Z M185,101 C185,98.8 183.2,97 181,97 L133,97 C130.8,97 129,98.8 129,101 L129,141 C129,143.2 130.8,145 133,145 L181,145 C183.2,145 185,143.2 185,141 L185,101 Z" id="4"></path>
                <path d="M15,135 L18,135 L18,138 L15,138 L15,135 Z M9,135 L12,135 L12,138 L9,138 L9,135 Z M3,135 L6,135 L6,138 L3,138 L3,135 Z M39,165 L3,165 L3,141 L39,141 L39,165 Z M39,138 L21,138 L21,135 L39,135 L39,138 Z M42,135 C42,133.35 40.65,132 39,132 L3,132 C1.35,132 0,133.35 0,135 L0,165 C0,166.65 1.35,168 3,168 L39,168 C40.65,168 42,166.65 42,165 L42,135 Z" id="3"></path>
                <path d="M75,87 L78,87 L78,90 L75,90 L75,87 Z M69,87 L72,87 L72,90 L69,90 L69,87 Z M63,87 L66,87 L66,90 L63,90 L63,87 Z M99,117 L63,117 L63,93 L99,93 L99,117 Z M99,90 L81,90 L81,87 L99,87 L99,90 Z M102,87 C102,85.35 100.65,84 99,84 L63,84 C61.35,84 60,85.35 60,87 L60,117 C60,118.65 61.35,120 63,120 L99,120 C100.65,120 102,118.65 102,117 L102,87 Z" id="3"></path>
                <path d="M190,71 L192,71 L192,73 L190,73 L190,71 Z M186,71 L188,71 L188,73 L186,73 L186,71 Z M182,71 L184,71 L184,73 L182,73 L182,71 Z M206,91 L182,91 L182,75 L206,75 L206,91 Z M206,73 L194,73 L194,71 L206,71 L206,73 Z M208,71 C208,69.9 207.1,69 206,69 L182,69 C180.9,69 180,69.9 180,71 L180,91 C180,92.1 180.9,93 182,93 L206,93 C207.1,93 208,92.1 208,91 L208,71 Z" id="2"></path>
                <path d="M22,79 L24,79 L24,81 L22,81 L22,79 Z M18,79 L20,79 L20,81 L18,81 L18,79 Z M14,79 L16,79 L16,81 L14,81 L14,79 Z M38,99 L14,99 L14,83 L38,83 L38,99 Z M38,81 L26,81 L26,79 L38,79 L38,81 Z M40,79 C40,77.9 39.1,77 38,77 L14,77 C12.9,77 12,77.9 12,79 L12,99 C12,100.1 12.9,101 14,101 L38,101 C39.1,101 40,100.1 40,99 L40,79 Z" id="2"></path>
                <path d="M92,162 L94,162 L94,164 L92,164 L92,162 Z M88,162 L90,162 L90,164 L88,164 L88,162 Z M84,162 L86,162 L86,164 L84,164 L84,162 Z M108,182 L84,182 L84,166 L108,166 L108,182 Z M108,164 L96,164 L96,162 L108,162 L108,164 Z M110,162 C110,160.9 109.1,160 108,160 L84,160 C82.9,160 82,160.9 82,162 L82,182 C82,183.1 82.9,184 84,184 L108,184 C109.1,184 110,183.1 110,182 L110,162 Z" id="2"></path>
                <path d="M162,2 L164,2 L164,4 L162,4 L162,2 Z M158,2 L160,2 L160,4 L158,4 L158,2 Z M154,2 L156,2 L156,4 L154,4 L154,2 Z M178,22 L154,22 L154,6 L178,6 L178,22 Z M178,4 L166,4 L166,2 L178,2 L178,4 Z M180,2 C180,0.9 179.1,0 178,0 L154,0 C152.9,0 152,0.9 152,2 L152,22 C152,23.1 152.9,24 154,24 L178,24 C179.1,24 180,23.1 180,22 L180,2 Z" id="2"></path>
                <path d="M88,5 L89,5 L89,6 L88,6 L88,5 Z M86,5 L87,5 L87,6 L86,6 L86,5 Z M84,5 L85,5 L85,6 L84,6 L84,5 Z M96,15 L84,15 L84,7 L96,7 L96,15 Z M96,6 L90,6 L90,5 L96,5 L96,6 Z M97,5 C97,4.45 96.55,4 96,4 L84,4 C83.45,4 83,4.45 83,5 L83,15 C83,15.55 83.45,16 84,16 L96,16 C96.55,16 97,15.55 97,15 L97,5 Z" id="1"></path>
                <path d="M146,165 L147,165 L147,166 L146,166 L146,165 Z M144,165 L145,165 L145,166 L144,166 L144,165 Z M142,165 L143,165 L143,166 L142,166 L142,165 Z M154,175 L142,175 L142,167 L154,167 L154,175 Z M154,166 L148,166 L148,165 L154,165 L154,166 Z M155,165 C155,164.45 154.55,164 154,164 L142,164 C141.45,164 141,164.45 141,165 L141,175 C141,175.55 141.45,176 142,176 L154,176 C154.55,176 155,175.55 155,175 L155,165 Z" id="1"></path>
                <path d="M5,15 L6,15 L6,16 L5,16 L5,15 Z M3,15 L4,15 L4,16 L3,16 L3,15 Z M1,15 L2,15 L2,16 L1,16 L1,15 Z M13,25 L1,25 L1,17 L13,17 L13,25 Z M13,16 L7,16 L7,15 L13,15 L13,16 Z M14,15 C14,14.45 13.55,14 13,14 L1,14 C0.45,14 0,14.45 0,15 L0,25 C0,25.55 0.45,26 1,26 L13,26 C13.55,26 14,25.55 14,25 L14,15 Z" id="1"></path>
            </g>
            <g id="main" transform="translate(16.000000, 18.000000)">
                <path d="M40.7889623,6 L139.210304,6 C149.54482,6 158,14.4551341 158,24.788861 L158,123.210406 C158,133.544133 149.54482,142 139.210304,142 L40.7889623,142 C30.4544464,142 22,133.544133 22,123.210406 L22,24.788861 C22,14.4551341 30.4544464,6 40.7889623,6" id="Fill-609" stroke="#3B8594" fill="#ED7B5C"></path>
                <path d="M22,57.7162483 L22,51.1210575 L22.1319395,51.1632869 C28.0565455,52.9532196 34.3218089,49.6304348 36.122746,43.7412895 C37.9236831,37.8521443 34.58047,31.6266458 28.6551186,29.8359722 C26.3972384,29.1543753 24.0901604,29.2151264 22,29.8767199 L22,25.7863977 C23.6384353,25.4115194 25.3543944,25.3048347 27.0837711,25.4996825 L27.8478276,23 L33.1537342,24.6024935 L32.3889323,27.1029169 C34.3128638,28.0919732 35.9594988,29.4588713 37.2610038,31.0806274 L39.5792631,29.8507896 L42.1904728,34.7130943 L39.8722135,35.9429321 C40.5035851,37.9195631 40.7287023,40.0391812 40.485695,42.1802845 L43,42.9396723 L41.3876544,48.2116761 L38.872604,47.4522882 C37.8759761,49.3652047 36.5021653,51.0017781 34.8704387,52.2953304 L36.1078376,54.6001651 L31.2156396,57.1939376 L29.9782408,54.8905846 C27.9894576,55.5180983 25.8553173,55.7418399 23.7025415,55.4995766 L22.9377396,58 L22,57.7162483" id="Fill-610" fill="#FA9891"></path>
                <path d="M137.606829,6 L138.938355,6 C142.035082,6 144.965182,6.73360409 147.557566,8.03107072 C142.395858,9.1770084 137.990666,12.9288069 136.341508,18.2439762 C133.895666,26.1249385 138.434755,34.4553882 146.481931,36.8514397 C150.473533,38.0389021 154.578202,37.543519 158,35.780538 L158,43.4196368 L157.1386,41.8387819 C154.436867,42.6780192 151.539497,42.9788916 148.616092,42.6539785 L147.57765,46 L140.372534,43.8552826 L141.41172,40.5092611 C138.79702,39.1848398 136.562437,37.3570219 134.795004,35.1860783 L131.644719,36.8317701 L128.100182,30.3262243 L131.24898,28.6790755 C130.390555,26.0338755 130.084825,23.1978072 130.415103,20.3333273 L127,19.3163349 L129.190694,12.2600397 L132.605797,13.2763036 C133.958895,10.718524 135.824519,8.52863934 138.041249,6.7977125 L137.606829,6" id="Fill-611" fill="#FA9891"></path>
                <path d="M75.8486911,18.4229172 L75.1105759,17.040557 L78.0278534,15.4830198 L78.7667016,16.8661129 C79.6404188,16.5883215 80.5617801,16.4424627 81.500733,16.4431957 L81.500733,18.8113853 C78.6318325,18.8099194 75.9798953,20.6694356 75.1025131,23.5550941 C74.0279581,27.087955 76.0216754,30.8238456 79.5553927,31.8976301 C80.2026178,32.094063 80.8571728,32.1878817 81.500733,32.1878817 L81.500733,34.5575373 C81.1657592,34.5568043 80.8293194,34.5377474 80.4921466,34.4996335 L80.0362304,36 L76.8726702,35.0376252 L77.3285864,33.5379917 C76.180733,32.9442951 75.199267,32.1241143 74.4237696,31.1514781 L73.0406283,31.8888346 L71.4837696,28.9723919 L72.866178,28.2335695 C72.4894241,27.0483753 72.355288,25.775959 72.5004188,24.4918153 L71,24.035915 L71.9624084,20.8724652 L73.4620942,21.3283655 C74.0565445,20.1812851 74.875288,19.1991204 75.8486911,18.4229172 Z M81.500733,16.4431957 C81.8342408,16.4431957 82.1706806,16.4622526 82.5078534,16.5003665 L82.9645026,15 L86.1280628,15.9623748 L85.6714136,17.4627413 C86.819267,18.0557049 87.801466,18.8758857 88.5769634,19.8485219 L89.9601047,19.1111654 L91.5169634,22.0276081 L90.133822,22.7656975 C90.5105759,23.9523577 90.645445,25.2233081 90.5003141,26.5074517 L92,26.9633521 L91.0383246,30.1275348 L89.5386387,29.6716345 C88.9441885,30.8194478 88.124712,31.8008796 87.1513089,32.5770828 L87.8894241,33.959443 L84.9721466,35.5162473 L84.2340314,34.1338871 C83.3603141,34.4116785 82.4382199,34.5582702 81.500733,34.5575373 L81.500733,32.1878817 C84.3681675,32.1893477 87.0208377,30.3305644 87.8982199,27.4449059 C88.9727749,23.910579 86.9790576,20.1761544 83.4453403,19.1016369 C82.7981152,18.904471 82.1435602,18.8113853 81.500733,18.8113853 L81.500733,16.4431957 Z" id="Fill-612" fill="#FA9891"></path>
                <polyline id="Fill-613" fill="#4D4D4D" points="49.1933693 105 68.8073709 105 78 122 40 122 49.1933693 105"></polyline>
                <path d="M12.6413809,41 L103.359346,41 C105.912141,41 108,43.1212948 108,45.7140703 L108,105.28593 C108,107.878705 105.912141,110 103.359346,110 L12.6413809,110 C10.0885851,110 8,107.878705 8,105.28593 L8,45.7140703 C8,43.1212948 10.0885851,41 12.6413809,41" id="Fill-614" fill="#46749C"></path>
                <path d="M102.499699,104 C102.775769,104 103,104.223629 103,104.499699 C103,104.775769 102.775769,105 102.499699,105 C102.223629,105 102,104.775769 102,104.499699 C102,104.223629 102.223629,104 102.499699,104" id="Fill-615" fill="#F5F5F5"></path>
                <path d="M100.500301,104 C100.776371,104 101,104.223629 101,104.499699 C101,104.775769 100.776371,105 100.500301,105 C100.224231,105 100,104.775769 100,104.499699 C100,104.223629 100.224231,104 100.500301,104" id="Fill-616" fill="#F5F5F5"></path>
                <path d="M97.5,104 C97.7762364,104 98,104.223629 98,104.499699 C98,104.775769 97.7762364,105 97.5,105 C97.2237636,105 97,104.775769 97,104.499699 C97,104.223629 97.2237636,104 97.5,104" id="Fill-617" fill="#F5F5F5"></path>
                <path d="M2.47720021,117 L113.523528,117 C114.885988,117 116,118.12443 116,119.499632 C116,120.874835 114.885988,122 113.523528,122 L2.47720021,122 C1.11401151,122 0,120.874835 0,119.499632 C0,118.12443 1.11401151,117 2.47720021,117" id="Fill-618" fill="#46749C"></path>
                <path d="M116,119 C116,120.65 114.885267,122 113.522815,122 L2.47791324,122 C1.11473309,122 0,120.65 0,119 L116,119" id="Fill-619" fill="#4D4D4D"></path>
                <polygon id="Fill-620" fill="#FFD47F" points="11 102 105 102 105 44 11 44"></polygon>
                <polygon id="Fill-621" fill="#FFFFFF" points="118 102 127 102 127 44 118 44"></polygon>
                <polygon id="Fill-622" fill="#FFCD61" points="118 99 120 99 120 47 118 47"></polygon>
                <polygon id="Fill-623" fill="#FFCD61" points="118 50 123 50 123 49 118 49"></polygon>
                <polygon id="Fill-624" fill="#FFCD61" points="118 54 123 54 123 53 118 53"></polygon>
                <polygon id="Fill-625" fill="#FFCD61" points="118 57 123 57 123 56 118 56"></polygon>
                <polygon id="Fill-626" fill="#FFCD61" points="118 61 123 61 123 60 118 60"></polygon>
                <polygon id="Fill-627" fill="#FFCD61" points="118 64 123 64 123 63 118 63"></polygon>
                <polyline id="Fill-628" fill="#FFCD61" points="118 67 123 67.0006702 123 68 118 68 118 67"></polyline>
                <polygon id="Fill-629" fill="#FFCD61" points="118 72 123 72 123 71 118 71"></polygon>
                <polygon id="Fill-630" fill="#FFCD61" points="118 74 123 74 123 73 118 73"></polygon>
                <polygon id="Fill-631" fill="#FFCD61" points="118 78 123 78 123 77 118 77"></polygon>
                <polygon id="Fill-632" fill="#FFCD61" points="118 81 123 81 123 80 118 80"></polygon>
                <polygon id="Fill-633" fill="#FFCD61" points="118 85 123 85 123 84 118 84"></polygon>
                <polygon id="Fill-634" fill="#FFCD61" points="118 89 123 89 123 88 118 88"></polygon>
                <polygon id="Fill-635" fill="#FFCD61" points="118 92 123 92 123 91 118 91"></polygon>
                <polygon id="Fill-636" fill="#FFCD61" points="118 96 123 96 123 95 118 95"></polygon>
                <path d="M42.2346391,44.5205571 L40.8296896,41.8868853 L46.3851219,38.9210453 L47.7922909,41.5547171 C49.4576629,41.0257634 51.212555,40.7468605 53,40.7483401 L53,45.2603525 C47.5370473,45.2581331 42.4847039,48.7973145 40.8134132,54.2954743 C38.7670255,61.0253935 42.5638664,68.1407461 49.2956387,70.1862805 C50.5289461,70.5613568 51.7748308,70.7389077 53,70.7396475 L53,75.2516599 C52.3637406,75.2509201 51.7223024,75.2154099 51.0801243,75.1421702 L50.2108164,78 L44.1848481,76.1675267 L45.0534162,73.3104367 C42.8671993,72.1792894 40.9983724,70.618321 39.520179,68.7643936 L36.8848814,70.170005 L33.9196168,64.6134014 L36.5534347,63.20779 C35.8357933,60.9484548 35.5805497,58.5263645 35.8565087,56.0798609 L33,55.2120809 L34.8318352,49.1849674 L37.6890837,50.0534872 C38.8202937,47.8681315 40.3813487,45.9986684 42.2346391,44.5205571 Z M53,40.7483401 C53.6369992,40.7490799 54.2769578,40.7853299 54.9198757,40.8578298 L55.7884438,38 L61.814412,39.8324733 L60.945844,42.6895633 C63.131321,43.8199708 65.0023675,45.3824188 66.4805608,47.2356064 L69.1136389,45.829995 L72.0796434,51.3865986 L69.4465653,52.7914702 C70.1634669,55.0515452 70.4187105,57.4736355 70.1434913,59.9193993 L73,60.7886589 L71.1681648,66.8142928 L68.3116561,65.945773 C67.1789664,68.1318685 65.6186513,70.0020714 63.7653609,71.4801827 L65.1703104,74.1138545 L59.6141383,77.0789547 L58.2077091,74.4460227 C56.5423371,74.9742366 54.787445,75.2531395 53,75.2516599 L53,70.7396475 C58.4629527,70.7411271 63.516036,67.2019457 65.1873266,61.7045257 C67.2337143,54.9738667 63.4353938,47.8585141 56.7051012,45.8137195 C55.4717937,45.4386432 54.2259091,45.2603525 53,45.2603525 L53,40.7483401 Z" id="Fill-637" fill="#FFFFFF"></path>
                <path d="M29.4992714,96.88488 L28.181985,97 L28.0056668,94.9970586 C26.6534082,94.8207356 25.3346646,94.4061581 24.1266663,93.7722697 L22.8341519,95.3125455 L19.0221814,92.1146882 L20.3146959,90.5736838 C19.4739058,89.4866017 18.8436775,88.2749278 18.4356684,86.9634347 L16.4335096,87.1397577 L16,82.1823137 L18.0014302,82.007448 C18.1777484,80.6442238 18.5894004,79.3422026 19.2269146,78.126157 L17.6874089,76.8328791 L20.88518,73.022263 L22.4254142,74.3140837 C23.5124669,73.4747281 24.7248367,72.8437542 26.0348373,72.4357341 L25.8599763,70.4327927 L29.4992714,70.11512 L29.4992714,75.7261246 C27.2399212,75.725396 25.0505154,76.7126589 23.5474391,78.5035756 C20.7926494,81.78668 21.2225161,86.6974931 24.5040747,89.4516286 C25.3135355,90.1306906 26.2330131,90.6312438 27.2348211,90.935073 C27.982352,91.1623985 28.7444546,91.2724182 29.4992714,91.2731468 L29.4992714,96.88488 Z M39.7730854,88.8731144 L41.3125911,90.1656637 L38.1126342,93.9770084 L36.5731286,92.6844591 C35.4853473,93.5245433 34.2751633,94.1555172 32.9651627,94.5642659 L33.1385666,96.5664787 L29.4992714,96.88488 L29.4992714,91.2731468 C31.7593502,91.2731468 33.9480274,90.2866125 35.4518323,88.4949672 C38.2051649,85.2125914 37.7767554,80.3025069 34.4951967,77.5476428 C33.6842787,76.8678522 32.7655297,76.3687562 31.7644503,76.0641984 C31.0169194,75.8368729 30.2540882,75.7261246 29.4992714,75.7261246 L29.4992714,70.11512 L30.8165578,70 L30.9921474,72.0014842 C32.3436775,72.1770786 33.6638782,72.5931133 34.8726051,73.2277303 L36.1651195,71.6874545 L39.9778186,74.8853118 L38.6853041,76.4255876 C39.5246371,77.5141269 40.1555939,78.7243436 40.563603,80.0358367 L42.5664904,79.8602423 L43,84.8176863 L40.9956555,84.9910948 C40.821523,86.354319 40.4105996,87.6563402 39.7730854,88.8731144 Z" id="Fill-638" fill="#ED7B5C"></path>
                <path d="M89.5,97 C94.7320436,97 99,92.7322084 99,87.4996332 C99,82.267058 94.7320436,78 89.5,78 C84.2672227,78 80,82.267058 80,87.4996332 C80,92.7322084 84.2672227,97 89.5,97" id="Fill-639" fill="#91BDE3"></path>
                <path d="M89.5,97 C94.7320436,97 99,92.7322084 99,87.4996332 C99,82.267058 94.7320436,78 89.5,78 C84.2672227,78 80,82.267058 80,87.4996332 C80,92.7322084 84.2672227,97 89.5,97 Z" id="Stroke-640" stroke="#000000" stroke-width="0.567"></path>
                <path d="M89.5003648,96.0416247 C84.781731,96.0416247 80.9576457,92.2175393 80.9576457,87.4996352 C80.9576457,82.7810014 84.781731,78.956916 89.5003648,78.956916 L89.5003648,77 C83.7011223,77 79,81.7003926 79,87.4996352 C79,93.2981481 83.7011223,98 89.5003648,98 L89.5003648,96.0416247 Z M89.5003648,78.956916 C94.2175393,78.956916 98.0423543,82.7810014 98.0423543,87.4996352 C98.0423543,92.2175393 94.2175393,96.0416247 89.5003648,96.0416247 L89.5003648,98 C95.2988777,98 100,93.2981481 100,87.4996352 C100,81.7003926 95.2988777,77 89.5003648,77 L89.5003648,78.956916 Z" id="Fill-641" fill="#FFFFFF"></path>
                <path d="M89.499256,82 L89.5,82 C89.7745536,82 90,82.2125513 90,82.4722581 L90,87.5270381 C90,87.7867449 89.7745536,88 89.5,88 L89.499256,88 C89.2247024,88 89,87.7867449 89,87.5270381 L89,82.4722581 C89,82.2125513 89.2247024,82 89.499256,82" id="Fill-642" fill="#FFFFFF"></path>
                <path d="M85.1190151,84.1706624 C85.2913975,83.9606722 85.5906141,83.9415821 85.783318,84.129428 L88.8427548,87.104417 C89.0361594,87.2922628 89.053678,87.6183204 88.8812956,87.8290743 C88.7089132,88.0398281 88.4089959,88.0581545 88.216292,87.8703087 L85.1568552,84.8945561 C84.9634505,84.7067102 84.9466328,84.3814163 85.1190151,84.1706624" id="Fill-643" fill="#FFFFFF"></path>
                <path d="M89.5003367,81 C89.7750842,81 90,80.7757576 90,80.4996633 C90,80.2242424 89.7750842,80 89.5003367,80 C89.2242424,80 89,80.2242424 89,80.4996633 C89,80.7757576 89.2242424,81 89.5003367,81" id="Fill-644" fill="#FFFFFF"></path>
                <path d="M97,88.5003367 C97,88.776431 96.7762803,89 96.5,89 C96.2237197,89 96,88.776431 96,88.5003367 C96,88.2242424 96.2237197,88 96.5,88 C96.7762803,88 97,88.2242424 97,88.5003367" id="Fill-645" fill="#FFFFFF"></path>
                <path d="M89.5003367,96 C89.2242424,96 89,95.776431 89,95.5003367 C89,95.2242424 89.2242424,95 89.5003367,95 C89.776431,95 90,95.2242424 90,95.5003367 C90,95.776431 89.776431,96 89.5003367,96" id="Fill-646" fill="#FFFFFF"></path>
                <path d="M81,88.5003367 C81,88.223569 81.2240915,88 81.5,88 C81.7759085,88 82,88.223569 82,88.5003367 C82,88.7757576 81.7759085,89 81.5,89 C81.2240915,89 81,88.7757576 81,88.5003367" id="Fill-647" fill="#FFFFFF"></path>
                <path d="M89.5004319,90 C90.3262309,90 91,89.3262309 91,88.4995681 C91,87.6737691 90.3262309,87 89.5004319,87 C88.6737691,87 88,87.6737691 88,88.4995681 C88,89.3262309 88.6737691,90 89.5004319,90" id="Fill-648" fill="#FFFFFF"></path>
                <path d="M55.5177629,84.9890987 C55.6120577,84.9842537 55.689208,84.9606342 55.7694197,84.9109728 C56.195583,84.629356 55.9910736,83.990419 55.4822493,84.000109 L55.4338773,84.0019259 L55.2385525,84.0073765 L55.0462892,84.0110103 L54.856475,84.0104047 L54.6697224,84.0079822 L54.5184834,84.0031371 C54.4162287,83.9995034 54.3109125,84.0285735 54.2258023,84.0836856 C53.8204573,84.3525842 53.9943515,84.9697186 54.4811329,84.9921268 L54.6470672,84.9969719 L54.8497397,85 L55.0542491,85 L55.2605954,84.9969719 L55.4706156,84.9909156 L55.5177629,84.9890987" id="Fill-649" fill="#4D4D4D"></path>
                <path d="M62.6362761,83.5374858 C63.1852802,83.2799569 63.0889856,82.0422809 62.5074665,82 C62.4511905,82 62.3999167,82.0076874 62.3455166,82.0336325 L62.2360909,82.0836008 L61.9759706,82.2008341 L61.7183513,82.3142237 L61.462608,82.4218477 L61.3788192,82.4564411 C60.842321,82.6707282 60.8810889,83.8939903 61.4607321,83.9968097 C61.5226358,84.0044971 61.5789118,83.9987315 61.6383143,83.9747083 L61.7302318,83.9362712 L61.994104,83.8248034 L62.2598519,83.709492 L62.5268505,83.5893759 L62.6362761,83.5374858" id="Fill-650" fill="#4D4D4D"></path>
                <path d="M69.6900121,81.365544 C70.2582372,81.008449 69.9830831,79.8481086 69.366866,80.0166156 C69.3297522,80.0288389 69.3003172,80.0410622 69.2657629,80.0620164 L69.0520386,80.1921072 L68.7525686,80.3728374 L68.4543784,80.5492022 L68.3174413,80.6295267 C67.7812108,80.9403478 67.9667798,82.0456833 68.5567613,81.9985363 C68.6169113,81.9906785 68.6681027,81.9758359 68.7250532,81.9426584 L68.8677494,81.8597146 L69.1710587,81.6789844 L69.4762878,81.4956349 L69.6900121,81.365544" id="Fill-651" fill="#4D4D4D"></path>
                <path d="M76.728151,78.2583928 C77.2300625,77.8942412 76.9862956,76.933606 76.4098816,77.0036351 C76.3334185,77.0159932 76.2732937,77.0374139 76.2053265,77.0860224 L76.0308338,77.2104271 L75.7053756,77.4386398 L75.3812244,77.6652047 L75.27862,77.7352338 C74.7388037,78.1117435 75.0453096,79.1630047 75.6694314,78.9784573 C75.7112573,78.9628037 75.7504692,78.9438547 75.7883739,78.9183146 L75.8948994,78.8441661 L76.2236253,78.6151296 L76.5536583,78.3836214 L76.728151,78.2583928" id="Fill-652" fill="#4D4D4D"></path>
                <path d="M81.7566464,74.1805533 C81.9529406,74.0227791 82.0437434,73.7403634 81.9796473,73.4705697 C81.8835032,73.0516794 81.454193,72.864717 81.1517396,73.108478 L80.8439449,73.3514502 L80.5034344,73.6188774 L80.2470501,73.8168839 C79.7783475,74.1939641 80.0240491,75.0388445 80.5862252,74.9986121 C80.6783633,74.9883568 80.7651601,74.9583797 80.8426095,74.8960589 L81.1036675,74.6941081 L81.448184,74.4243143 L81.7566464,74.1805533" id="Fill-653" fill="#4D4D4D"></path>
                <path d="M87.7835747,71.1116353 C88.2933082,70.662695 87.82247,69.7556989 87.2008272,70.0618291 C87.1626142,70.0830986 87.1332721,70.1036086 87.0991534,70.1324745 L86.9831498,70.2327454 L86.6358214,70.532039 L86.2871282,70.8298132 L86.2223027,70.8845065 C85.7453231,71.2825517 86.0967458,72.1447298 86.7013293,71.9791308 C86.7743433,71.956342 86.8343923,71.9251972 86.8944412,71.8750618 L86.9640433,71.8165704 L87.3161484,71.5157576 L87.6675711,71.2126659 L87.7835747,71.1116353" id="Fill-654" fill="#4D4D4D"></path>
                <path d="M92.8077321,66.0495168 C93.2961561,65.5825825 92.7713453,64.7487189 92.1562669,65.0729992 C92.1135823,65.0980004 92.0820936,65.1207956 92.045007,65.1553561 L91.9925259,65.2046232 L91.6440515,65.5311095 L91.2948773,65.8553898 L91.1955131,65.9465706 C91.0163776,66.1105491 90.9547998,66.3693851 91.0338713,66.6039552 C91.1724214,67.0002978 91.642652,67.1289804 91.9463425,66.8524966 L92.0499052,66.7576391 L92.4032779,66.4289468 L92.8077321,66.0495168" id="Fill-655" fill="#4D4D4D"></path>
                <path d="M98.8343723,60.9898494 C98.9315683,60.8878257 98.9934858,60.7572639 98.9992455,60.6167138 C99.0251645,60.0766305 98.3771909,59.7933899 97.9912866,60.1765138 L97.7961745,60.375567 L97.4534685,60.7244451 L97.1726799,61.0055453 C96.7349377,61.4407512 97.1971589,62.1813147 97.8033742,61.9594311 C97.882571,61.9280392 97.9466484,61.8880858 98.0078459,61.8267289 L98.2929543,61.5406346 L98.6392602,61.1889026 L98.8343723,60.9898494" id="Fill-656" fill="#4D4D4D"></path>
                <path d="M102.855241,55.9306536 C103.283725,55.4475385 102.681471,54.7664709 102.084415,55.079319 C102.025006,55.1125418 101.971539,55.1526861 101.92624,55.2039046 L101.683407,55.4752242 L101.352947,55.8406751 L101.14873,56.0635448 C100.70985,56.5584263 101.326213,57.2284197 101.908417,56.9231851 C101.972281,56.8878858 102.019808,56.8539709 102.069563,56.7999838 L102.277492,56.5722691 L102.613151,56.2012811 L102.855241,55.9306536" id="Fill-657" fill="#4D4D4D"></path>
                <path d="M107.882874,49.8713055 C108.072586,49.6370342 108.027675,49.3183713 107.778338,49.1320345 C107.498029,48.9213929 107.065949,48.9686522 106.851458,49.2319542 L106.61606,49.5229367 L106.302454,49.9057373 L106.121259,50.1238054 C106.010529,50.2520807 105.974135,50.4249149 106.018272,50.5795204 C106.153007,51.0365857 106.818162,51.1506832 107.143383,50.7739588 L107.329224,50.5498145 L107.647476,50.1616129 L107.882874,49.8713055" id="Fill-658" fill="#4D4D4D"></path>
                <path d="M111.905492,43.8091593 C112.274057,43.2945756 111.485084,42.7438923 110.90753,43.1291737 C110.849207,43.1698678 110.802225,43.2145001 110.763344,43.267665 L110.563265,43.5479293 L110.275703,43.9417433 L110.096685,44.1852516 C109.7427,44.6794883 110.43123,45.2137626 111.022555,44.9124949 C111.108418,44.8658936 111.175651,44.811416 111.229923,44.7392167 L111.413801,44.4898012 L111.705413,44.0894236 L111.905492,43.8091593" id="Fill-659" fill="#4D4D4D"></path>
                <path d="M114.935929,36.743249 C115.11643,36.4430763 114.900689,36.1005716 114.475223,36.0165489 C114.148603,35.9536922 113.799636,36.0742744 113.661252,36.3038937 L113.506537,36.557886 L113.252977,36.9645302 L113.073336,37.2473852 C112.745856,37.7502386 113.587333,38.2447539 114.171811,37.8663311 C114.24487,37.8169437 114.297301,37.7662735 114.339418,37.7002098 L114.524216,37.4096581 L114.782074,36.9959585 L114.935929,36.743249" id="Fill-660" fill="#4D4D4D"></path>
                <path d="M117.958368,30.6774883 C118.232314,30.1056333 117.083033,29.7197883 116.592329,30.2564522 C116.567425,30.286616 116.545288,30.3167798 116.529608,30.350714 L116.429069,30.5593468 L116.220612,30.975984 L116.047205,31.3146982 C115.778794,31.8186846 116.71685,32.241606 117.301636,31.8406791 C117.377271,31.7860072 117.429847,31.7281933 117.467664,31.6559259 L117.645683,31.3109277 L117.856907,30.8861211 L117.958368,30.6774883" id="Fill-661" fill="#4D4D4D"></path>
                <path d="M118.990103,23.6083115 C119.080441,23.0939088 118.529832,22.7652111 118.254779,23.2059508 C118.217938,23.2703285 118.196741,23.3248019 118.18261,23.402798 L118.161413,23.5303154 L118.087729,23.9574367 L118.010513,24.382701 C117.913109,24.9398158 118.518224,25.2431339 118.766023,24.7559679 C118.788229,24.7058276 118.805389,24.6612584 118.814473,24.6055469 L118.893204,24.1722354 L118.968906,23.7364479 L118.990103,23.6083115" id="Fill-662" fill="#4D4D4D"></path>
                <polyline id="Fill-663" fill="#4D4D4D" points="115 20.4533301 120.897527 13 124 22 115 20.4533301"></polyline>
                <path d="M49.2395484,81.310965 C48.95595,80.7952742 48.0079662,80.954972 48,81.5398653 C48.0023899,81.6270336 48.0183224,81.6935744 48.0621367,81.7727579 L48.1537486,81.9271325 L48.2501402,82.07818 L48.3521082,82.225235 L48.4612459,82.3682977 L48.5743666,82.5073679 L48.694657,82.6424456 L48.8205237,82.7735309 L48.847609,82.8008126 C49.2969054,83.2546206 50.1907186,82.8706804 49.9636805,82.2744752 C49.9357987,82.2125923 49.9015438,82.1600251 49.8513564,82.1094541 L49.8234745,82.081507 L49.7270829,81.9810305 L49.635471,81.8772269 L49.5478423,81.7700963 L49.4641967,81.660304 L49.3853308,81.5465193 L49.3104481,81.430073 L49.2395484,81.310965" id="Fill-664" fill="#4D4D4D"></path>
                <path d="M56.606499,81.8186953 C57.1459666,81.7192457 57.1298446,81.0748535 56.5637136,81.0033107 C56.5010858,80.9977293 56.4458989,80.9987441 56.3838911,81.0099068 L56.1643836,81.0515133 L55.9250336,81.0946419 L55.688164,81.1347261 L55.4531545,81.1722734 L55.4165699,81.1773473 C54.8498189,81.2671563 54.865941,81.9262631 55.4370325,81.9967911 C55.4928395,82.001865 55.536865,82.0008502 55.5920519,81.9942541 L55.6410381,81.9866432 L55.887829,81.9475737 L56.1364801,81.9054599 L56.3869915,81.8603017 L56.606499,81.8186953" id="Fill-665" fill="#4D4D4D"></path>
                <path d="M63.6926603,79.3643288 C64.2550981,79.010846 63.9863564,77.8474074 63.3644116,78.0167301 C63.3304989,78.0289492 63.2959465,78.0437868 63.2645933,78.0638611 L63.09567,78.167724 L62.8128514,78.339665 L62.5325923,78.5063692 L62.3182389,78.6311792 C61.7922732,78.9349126 61.9535181,80.0197994 62.54347,79.999725 C62.6068162,79.9953611 62.6650435,79.9779051 62.7245506,79.943866 L62.9465824,79.8155649 L63.2345198,79.6436238 L63.523737,79.4681916 L63.6926603,79.3643288" id="Fill-666" fill="#4D4D4D"></path>
                <path d="M70.7411477,76.2269181 C71.2116889,75.8730779 70.997507,74.9840243 70.4459062,75.0002183 C70.3490301,75.0075056 70.2673115,75.0326064 70.1836158,75.0965729 L70.0893758,75.1670171 L69.7809538,75.3945436 L69.4731909,75.6188313 L69.2669173,75.7678166 C68.7825367,76.1103209 69.0000137,77.0414791 69.5773163,76.9985648 C69.662989,76.9896581 69.7335043,76.9637476 69.8092918,76.9111169 L70.0208376,76.7580831 L70.3338726,76.5297469 L70.6475667,76.2973622 L70.7411477,76.2269181" id="Fill-667" fill="#4D4D4D"></path>
                <path d="M76.7755711,72.1344017 C76.9407258,71.9928613 77.0219494,71.7736275 76.9948749,71.5413165 C76.9386952,71.0736178 76.4520303,70.8397684 76.1190135,71.1228492 L76.0147765,71.2105427 L75.6925895,71.4797772 L75.3697256,71.746704 L75.2323223,71.858244 C74.7246746,72.2720959 75.1213167,73.1851854 75.7271095,72.9667209 C75.7805817,72.9459514 75.8299928,72.9174894 75.8753426,72.8805658 L76.017484,72.7644104 L76.3450859,72.4944067 L76.6713341,72.2228644 L76.7755711,72.1344017" id="Fill-668" fill="#4D4D4D"></path>
                <path d="M80.8031208,68.0634389 C81.2335912,67.6646083 80.9046534,66.9077197 80.3323154,67.0092807 C80.2259148,67.0330029 80.1424633,67.0708103 80.0590118,67.1479077 L79.9540021,67.245762 L79.6264551,67.5467383 L79.2989081,67.8447493 L79.2029389,67.9307425 C78.7383924,68.3621912 79.1375686,69.1539219 79.7335511,68.973781 C79.8114392,68.9478347 79.8719415,68.9129927 79.9345301,68.8573936 L80.0339764,68.7676938 L80.3663914,68.4659762 L80.6974156,68.1612933 L80.8031208,68.0634389" id="Fill-669" fill="#4D4D4D"></path>
                <path d="M86.8265585,63.0016327 C87.2876295,62.5380021 86.7500708,61.7640902 86.141743,62.0693555 C86.0895598,62.0980189 86.0430953,62.1309818 86.0009198,62.1739769 L85.7707417,62.4047173 L85.446205,62.7286138 L85.1767108,62.9951834 C84.7313663,63.4430492 85.1981559,64.1804153 85.7964759,63.959707 C85.8743934,63.9274607 85.9322953,63.8901983 85.9944863,63.8314383 L86.2682695,63.5605691 L86.5970953,63.2323731 L86.8265585,63.0016327" id="Fill-670" fill="#4D4D4D"></path>
                <path d="M91.8545427,57.9403443 C92.1987969,57.5462964 91.8914799,56.9705409 91.3566301,57.0011736 C91.1896742,57.0157938 91.052268,57.076363 90.9399791,57.1968052 L90.7021039,57.4585755 L90.3873995,57.8004086 L90.1539568,58.0524321 C89.6988912,58.5453401 90.3408587,59.2575504 90.9333304,58.9059705 C90.9813487,58.8774264 91.0212408,58.8440089 91.0596555,58.8036295 L91.2982694,58.5481249 L91.6166675,58.2014185 L91.8545427,57.9403443" id="Fill-671" fill="#4D4D4D"></path>
                <path d="M95.8790621,51.8810595 C96.0209679,51.7142015 96.034775,51.4985071 95.9373585,51.3113006 C95.7248833,50.9362094 95.1534246,50.8907644 94.8688458,51.2258368 L94.6655753,51.4734106 L94.3687236,51.8288316 L94.1286342,52.1130327 C93.7236273,52.5898666 94.3495471,53.2403413 94.9716317,52.9100168 C95.0345305,52.8733895 95.0859234,52.8320141 95.1311799,52.7784296 L95.3751045,52.4894805 L95.6765586,52.127955 L95.8790621,51.8810595" id="Fill-672" fill="#4D4D4D"></path>
                <path d="M99.9015066,45.8204774 C100.274129,45.3100254 99.5104535,44.7468135 98.9294833,45.1220683 C98.8709856,45.1622977 98.8213027,45.2084626 98.7828384,45.2612225 L98.601736,45.5085345 L98.331685,45.8725778 L98.1033036,46.1752877 C97.7467081,46.6329798 98.3797653,47.2074032 98.9895837,46.9251377 C99.0849429,46.8776538 99.153858,46.8235749 99.2147597,46.7457541 L99.4463465,46.4364492 L99.7212055,46.0677894 L99.9015066,45.8204774" id="Fill-673" fill="#4D4D4D"></path>
                <path d="M103.927957,39.7543992 C104.250038,39.2509677 103.42183,38.7520426 102.834757,39.1363759 C102.764035,39.1840152 102.712059,39.2361609 102.672012,39.3005383 L102.470073,39.6224255 L102.234902,39.9900206 L102.072158,40.2404488 C101.932419,40.4580445 101.99888,40.7174856 102.243423,40.8745665 C102.583397,41.0960249 103.121903,41.0142655 103.31873,40.7078289 L103.486587,40.450963 L103.725165,40.0762864 L103.927957,39.7543992" id="Fill-674" fill="#4D4D4D"></path>
                <path d="M106.958862,32.6772101 C107.213322,32.1475657 106.225907,31.7611703 105.682874,32.1726971 C105.61465,32.2273579 105.564864,32.2820187 105.530752,32.3517584 L105.461605,32.4950074 L105.279058,32.8625543 L105.090979,33.2301011 L105.048569,33.3111499 C104.763684,33.8464489 105.801807,34.2611172 106.348527,33.8030972 C106.398313,33.7603739 106.437035,33.7126242 106.464693,33.6598482 L106.510791,33.57126 L106.70348,33.1955454 L106.890637,32.8204592 L106.958862,32.6772101" id="Fill-675" fill="#4D4D4D"></path>
                <path d="M107.992634,25.5935168 C108.071926,25.0662334 107.490627,24.7698681 107.229584,25.2218252 C107.196117,25.2841854 107.175007,25.3428411 107.164194,25.4156976 L107.149263,25.5212777 L107.093141,25.886795 L107.03393,26.2523122 L107.010245,26.3930858 C106.915508,26.9185169 107.501955,27.2426665 107.773296,26.7728039 C107.803159,26.7153831 107.821695,26.6653715 107.833537,26.5986892 L107.858766,26.4492717 L107.920036,26.074493 L107.977188,25.6984795 L107.992634,25.5935168" id="Fill-676" fill="#4D4D4D"></path>
                <path d="M107.999951,18.5027222 C108.006578,17.9974169 107.336099,17.8026447 107.080678,18.2503758 C107.037907,18.3318371 107.016823,18.4034986 107.015618,18.4959848 L107.015618,18.6846321 L107.010799,19.0466144 L107.002365,19.4085968 L107.000558,19.4796458 C106.995136,19.5941816 107.029473,19.7001426 107.093328,19.7926288 C107.373448,20.1766608 107.961397,19.9935259 107.983686,19.5200702 L107.986698,19.4379964 L107.995132,19.0643767 L107.999349,18.6913695 L107.999951,18.5027222" id="Fill-677" fill="#4D4D4D"></path>
                <path d="M107.840815,11.4086747 C107.754628,10.8769527 107.113411,10.8528677 107.008532,11.402499 C106.998147,11.4673432 106.99659,11.5309522 107.007493,11.5964139 L107.056298,11.894697 L107.111853,12.2553539 L107.157024,12.5764868 C107.188176,12.8031326 107.347572,12.9791381 107.540196,12.9982826 C107.816413,13.0248378 108.038113,12.7395236 107.9945,12.4140677 L107.946733,12.079966 L107.89014,11.7069577 L107.840815,11.4086747" id="Fill-678" fill="#4D4D4D"></path>
                <polyline id="Fill-679" fill="#4D4D4D" points="102 10 103.715506 0 111 6.84658877 102 10"></polyline>
                <path d="M48.6773952,81.0441682 C48.5357998,80.9726154 48.3948283,80.9861524 48.2632132,81.0983163 C47.8777245,81.4328742 47.9257547,82.3021446 48.3411842,82.5361417 L48.5283146,82.6328348 L48.7185639,82.7227593 L48.9106845,82.8068822 L49.1059239,82.8852036 L49.3030346,82.9557895 L49.3810056,82.9818966 C49.5531656,83.0389455 49.7284444,82.9596572 49.8525742,82.7653042 C50.1345174,82.3263178 49.9910508,81.5692114 49.6005719,81.4386758 L49.5226009,81.4145025 L49.3479459,81.3497182 L49.1757859,81.2820331 L49.0067447,81.2085464 L48.8408224,81.1292581 L48.6773952,81.0441682" id="Fill-680" fill="#4D4D4D"></path>
                <path d="M137.848127,82.4230366 L137.110719,81.0406283 L140.027366,79.4830366 L140.76624,80.866178 C141.64072,80.588377 142.562114,80.4417801 143.500367,80.4417801 L143.500367,82.8107853 C140.632099,82.8100524 137.979336,84.6681675 137.101923,87.5546597 C136.028064,91.088377 138.021118,94.8236649 141.554958,95.8974869 C142.202939,96.0946597 142.856784,96.1877487 143.500367,96.1884817 L143.500367,98.5567539 C143.166114,98.5567539 142.829662,98.5376963 142.492478,98.4995812 L142.035813,100 L138.872142,99.0383246 L139.328074,97.5379058 C138.180181,96.9434555 137.199414,96.124712 136.423156,95.1513089 L135.039966,95.8894241 L133.483054,92.9714136 L134.86551,92.2332984 C134.488743,91.0480628 134.355335,89.7756021 134.499738,88.4914136 L133,88.0362304 L133.961709,84.8712042 L135.461447,85.3271204 C136.055918,84.18 136.875423,83.198534 137.848127,82.4230366 Z M143.500367,80.4417801 C143.834619,80.4425131 144.171071,80.4615707 144.508255,80.4996859 L144.964187,79 L148.127858,79.9609424 L147.671926,81.4613613 C148.819819,82.0550785 149.801319,82.875288 150.577577,83.8479581 L151.960034,83.1105759 L153.516946,86.0278534 L152.13449,86.7645026 C152.511257,87.9519372 152.645398,89.2229319 152.500995,90.5078534 L154,90.9637696 L153.038291,94.1273298 L151.538553,93.6706806 C150.944082,94.819267 150.124577,95.800733 149.151873,96.5769634 L149.889281,97.9601047 L146.972634,99.5162304 L146.234493,98.133822 C145.360013,98.411623 144.437886,98.5574869 143.500367,98.5567539 L143.500367,96.1884817 C146.368634,96.1892147 149.021397,94.3310995 149.89881,91.4446073 C150.973402,87.9108901 148.978882,84.1756021 145.445775,83.1010471 C144.797794,82.9046073 144.143949,82.8107853 143.500367,82.8107853 L143.500367,80.4417801 Z" id="Fill-681" fill="#FA9891"></path>
            </g>
        </g>
    </g>
</svg>