<?xml version="1.0" encoding="UTF-8"?>
<svg width="208px" height="184px" viewBox="0 0 208 184" version="1.1" xmlns="http://www.w3.org/2000/svg" xmlns:xlink="http://www.w3.org/1999/xlink">
    <!-- Generator: Sketch 49 (51002) - http://www.bohemiancoding.com/sketch -->
    <title>Untitled 2</title>
    <desc>Created with Sketch.</desc>
    <defs></defs>
    <g id="Page-1" stroke="none" stroke-width="1" fill="none" fill-rule="evenodd">
        <g id="default-image">
            <g id="faded" fill="#E8F6F8" fill-rule="nonzero">
                <path d="M149,101 L153,101 L153,105 L149,105 L149,101 Z M141,101 L145,101 L145,105 L141,105 L141,101 Z M133,101 L137,101 L137,105 L133,105 L133,101 Z M181,141 L133,141 L133,109 L181,109 L181,141 Z M181,105 L157,105 L157,101 L181,101 L181,105 Z M185,101 C185,98.8 183.2,97 181,97 L133,97 C130.8,97 129,98.8 129,101 L129,141 C129,143.2 130.8,145 133,145 L181,145 C183.2,145 185,143.2 185,141 L185,101 Z" id="4"></path>
                <path d="M15,135 L18,135 L18,138 L15,138 L15,135 Z M9,135 L12,135 L12,138 L9,138 L9,135 Z M3,135 L6,135 L6,138 L3,138 L3,135 Z M39,165 L3,165 L3,141 L39,141 L39,165 Z M39,138 L21,138 L21,135 L39,135 L39,138 Z M42,135 C42,133.35 40.65,132 39,132 L3,132 C1.35,132 0,133.35 0,135 L0,165 C0,166.65 1.35,168 3,168 L39,168 C40.65,168 42,166.65 42,165 L42,135 Z" id="3"></path>
                <path d="M75,87 L78,87 L78,90 L75,90 L75,87 Z M69,87 L72,87 L72,90 L69,90 L69,87 Z M63,87 L66,87 L66,90 L63,90 L63,87 Z M99,117 L63,117 L63,93 L99,93 L99,117 Z M99,90 L81,90 L81,87 L99,87 L99,90 Z M102,87 C102,85.35 100.65,84 99,84 L63,84 C61.35,84 60,85.35 60,87 L60,117 C60,118.65 61.35,120 63,120 L99,120 C100.65,120 102,118.65 102,117 L102,87 Z" id="3"></path>
                <path d="M190,71 L192,71 L192,73 L190,73 L190,71 Z M186,71 L188,71 L188,73 L186,73 L186,71 Z M182,71 L184,71 L184,73 L182,73 L182,71 Z M206,91 L182,91 L182,75 L206,75 L206,91 Z M206,73 L194,73 L194,71 L206,71 L206,73 Z M208,71 C208,69.9 207.1,69 206,69 L182,69 C180.9,69 180,69.9 180,71 L180,91 C180,92.1 180.9,93 182,93 L206,93 C207.1,93 208,92.1 208,91 L208,71 Z" id="2"></path>
                <path d="M22,79 L24,79 L24,81 L22,81 L22,79 Z M18,79 L20,79 L20,81 L18,81 L18,79 Z M14,79 L16,79 L16,81 L14,81 L14,79 Z M38,99 L14,99 L14,83 L38,83 L38,99 Z M38,81 L26,81 L26,79 L38,79 L38,81 Z M40,79 C40,77.9 39.1,77 38,77 L14,77 C12.9,77 12,77.9 12,79 L12,99 C12,100.1 12.9,101 14,101 L38,101 C39.1,101 40,100.1 40,99 L40,79 Z" id="2"></path>
                <path d="M92,162 L94,162 L94,164 L92,164 L92,162 Z M88,162 L90,162 L90,164 L88,164 L88,162 Z M84,162 L86,162 L86,164 L84,164 L84,162 Z M108,182 L84,182 L84,166 L108,166 L108,182 Z M108,164 L96,164 L96,162 L108,162 L108,164 Z M110,162 C110,160.9 109.1,160 108,160 L84,160 C82.9,160 82,160.9 82,162 L82,182 C82,183.1 82.9,184 84,184 L108,184 C109.1,184 110,183.1 110,182 L110,162 Z" id="2"></path>
                <path d="M162,2 L164,2 L164,4 L162,4 L162,2 Z M158,2 L160,2 L160,4 L158,4 L158,2 Z M154,2 L156,2 L156,4 L154,4 L154,2 Z M178,22 L154,22 L154,6 L178,6 L178,22 Z M178,4 L166,4 L166,2 L178,2 L178,4 Z M180,2 C180,0.9 179.1,0 178,0 L154,0 C152.9,0 152,0.9 152,2 L152,22 C152,23.1 152.9,24 154,24 L178,24 C179.1,24 180,23.1 180,22 L180,2 Z" id="2"></path>
                <path d="M88,5 L89,5 L89,6 L88,6 L88,5 Z M86,5 L87,5 L87,6 L86,6 L86,5 Z M84,5 L85,5 L85,6 L84,6 L84,5 Z M96,15 L84,15 L84,7 L96,7 L96,15 Z M96,6 L90,6 L90,5 L96,5 L96,6 Z M97,5 C97,4.45 96.55,4 96,4 L84,4 C83.45,4 83,4.45 83,5 L83,15 C83,15.55 83.45,16 84,16 L96,16 C96.55,16 97,15.55 97,15 L97,5 Z" id="1"></path>
                <path d="M146,165 L147,165 L147,166 L146,166 L146,165 Z M144,165 L145,165 L145,166 L144,166 L144,165 Z M142,165 L143,165 L143,166 L142,166 L142,165 Z M154,175 L142,175 L142,167 L154,167 L154,175 Z M154,166 L148,166 L148,165 L154,165 L154,166 Z M155,165 C155,164.45 154.55,164 154,164 L142,164 C141.45,164 141,164.45 141,165 L141,175 C141,175.55 141.45,176 142,176 L154,176 C154.55,176 155,175.55 155,175 L155,165 Z" id="1"></path>
                <path d="M5,15 L6,15 L6,16 L5,16 L5,15 Z M3,15 L4,15 L4,16 L3,16 L3,15 Z M1,15 L2,15 L2,16 L1,16 L1,15 Z M13,25 L1,25 L1,17 L13,17 L13,25 Z M13,16 L7,16 L7,15 L13,15 L13,16 Z M14,15 C14,14.45 13.55,14 13,14 L1,14 C0.45,14 0,14.45 0,15 L0,25 C0,25.55 0.45,26 1,26 L13,26 C13.55,26 14,25.55 14,25 L14,15 Z" id="1"></path>
            </g>
            <g id="main" transform="translate(29.000000, 23.000000)">
                <path d="M27.6738916,0.0266009852 L126.855665,0.0266009852 C137.269212,0.0266009852 145.790394,8.54704433 145.790394,18.96133 L145.790394,118.142365 C145.790394,128.555911 137.269212,137.077094 126.855665,137.077094 L27.6738916,137.077094 C17.2603448,137.077094 8.73990148,128.555911 8.73990148,118.142365 L8.73990148,18.96133 C8.73990148,8.54704433 17.2603448,0.0266009852 27.6738916,0.0266009852" id="Fill-37" stroke="#3B8594" fill="#FFD47F"></path>
                <polyline id="Fill-38" fill="#4D4D4D" points="67.4748768 77.1731527 87.0546798 77.1731527 96.2320197 93.7980296 58.2975369 93.7980296 67.4748768 77.1731527"></polyline>
                <path d="M31.129064,12.2874384 L123.401232,12.2874384 C125.998522,12.2874384 128.122167,14.4118227 128.122167,17.0083744 L128.122167,76.6669951 C128.122167,79.2635468 125.998522,81.387931 123.401232,81.387931 L31.129064,81.387931 C28.5325123,81.387931 26.4081281,79.2635468 26.4081281,76.6669951 L26.4081281,17.0083744 C26.4081281,14.4118227 28.5325123,12.2874384 31.129064,12.2874384" id="Fill-39" fill="#46749C"></path>
                <path d="M122.389655,76.6027094 C122.728079,76.6027094 123.002956,76.8768473 123.002956,77.2160099 C123.002956,77.5544335 122.728079,77.8285714 122.389655,77.8285714 C122.051232,77.8285714 121.777094,77.5544335 121.777094,77.2160099 C121.777094,76.8768473 122.051232,76.6027094 122.389655,76.6027094" id="Fill-40" fill="#F5F5F5"></path>
                <path d="M119.996305,76.6027094 C120.334729,76.6027094 120.608867,76.8768473 120.608867,77.2160099 C120.608867,77.5544335 120.334729,77.8285714 119.996305,77.8285714 C119.657882,77.8285714 119.383005,77.5544335 119.383005,77.2160099 C119.383005,76.8768473 119.657882,76.6027094 119.996305,76.6027094" id="Fill-41" fill="#F5F5F5"></path>
                <path d="M117.602217,76.6027094 C117.94064,76.6027094 118.214778,76.8768473 118.214778,77.2160099 C118.214778,77.5544335 117.94064,77.8285714 117.602217,77.8285714 C117.263793,77.8285714 116.988916,77.5544335 116.988916,77.2160099 C116.988916,76.8768473 117.263793,76.6027094 117.602217,76.6027094" id="Fill-42" fill="#F5F5F5"></path>
                <path d="M20.9549261,88.7741379 L133.575369,88.7741379 C134.957882,88.7741379 136.087685,89.9039409 136.087685,91.2857143 C136.087685,92.6682266 134.957882,93.7980296 133.575369,93.7980296 L20.9549261,93.7980296 C19.5731527,93.7980296 18.4426108,92.6682266 18.4426108,91.2857143 C18.4426108,89.9039409 19.5731527,88.7741379 20.9549261,88.7741379" id="Fill-43" fill="#46749C"></path>
                <path d="M136.087685,91.2857143 C136.087685,92.6682266 134.957143,93.7980296 133.574631,93.7980296 L20.9549261,93.7980296 C19.5724138,93.7980296 18.4426108,92.6682266 18.4426108,91.2857143 L136.087685,91.2857143" id="Fill-44" fill="#4D4D4D"></path>
                <polygon id="Fill-45" fill="#FFFFFF" points="29.541133 72.9576355 124.989163 72.9576355 124.989163 15.0406404 29.541133 15.0406404"></polygon>
                <polygon id="Fill-46" fill="#A2C9EB" points="35.8773399 20.0564039 118.653695 20.0564039 118.653695 15.0406404 35.8773399 15.0406404"></polygon>
                <polygon id="Fill-47" fill="#ED7B5C" points="58.0034483 30.7463054 96.5275862 30.7463054 96.5275862 23.1073892 58.0034483 23.1073892"></polygon>
                <polygon id="Fill-48" fill="#5896CC" points="35.8773399 60.7514778 118.653695 60.7514778 118.653695 39.6916256 35.8773399 39.6916256"></polygon>
                <polygon id="Fill-49" fill="#91BDE3" points="51.7758621 36.935468 102.755172 36.935468 102.755172 33.7337438 51.7758621 33.7337438"></polygon>
                <polygon id="Fill-50" fill="#FFAE00" points="40.8908867 72.9576355 61.676601 72.9576355 61.676601 64.9795567 40.8908867 64.9795567"></polygon>
                <polygon id="Fill-51" fill="#FA9891" points="66.8726601 72.9576355 87.6583744 72.9576355 87.6583744 64.9795567 66.8726601 64.9795567"></polygon>
                <polygon id="Fill-52" fill="#A2C9EB" points="92.8544335 72.9576355 113.640148 72.9576355 113.640148 64.9795567 92.8544335 64.9795567"></polygon>
                <path d="M114.138177,48.8674877 C114.00665,48.7019704 114.03399,48.4610837 114.199507,48.3288177 C114.365025,48.1972906 114.60665,48.2253695 114.737438,48.3908867 L115.729803,49.6330049 C115.73867,49.6433498 115.747537,49.6551724 115.754187,49.6669951 L115.755665,49.6684729 L115.765271,49.6847291 L115.773399,49.6980296 L115.774877,49.7017241 L115.780788,49.7157635 L115.785222,49.7246305 C115.790394,49.7371921 115.795567,49.7512315 115.8,49.764532 L115.800739,49.7682266 C115.805911,49.7859606 115.809606,49.8029557 115.811823,49.8206897 L115.811823,49.8236453 C115.814039,49.8369458 115.814778,49.8502463 115.815517,49.8635468 L115.815517,49.8857143 C115.814778,49.8990148 115.814039,49.9123153 115.811823,49.9256158 L115.811823,49.9285714 C115.809606,49.9463054 115.805911,49.9633005 115.800739,49.9810345 L115.8,49.9847291 C115.795567,49.9980296 115.790394,50.01133 115.785222,50.0246305 L115.780788,50.0334975 L115.774877,50.0475369 L115.773399,50.0512315 L115.765271,50.064532 L115.755665,50.0807882 L115.754187,50.082266 C115.747537,50.0940887 115.73867,50.1051724 115.729803,50.1162562 L114.737438,51.3583744 C114.60665,51.5238916 114.365025,51.5519704 114.199507,51.4197044 C114.03399,51.2881773 114.00665,51.0472906 114.138177,50.8817734 L114.942857,49.8746305 L114.138177,48.8674877" id="Fill-53" fill="#FFFFFF"></path>
                <path d="M39.7928571,48.3908867 C39.9243842,48.2253695 40.1652709,48.1972906 40.3307882,48.3288177 C40.4963054,48.4610837 40.5236453,48.7019704 40.3921182,48.8674877 L39.5874384,49.8746305 L40.3921182,50.8817734 C40.5236453,51.0472906 40.4963054,51.2881773 40.3307882,51.4197044 C40.1652709,51.5519704 39.9243842,51.5238916 39.7928571,51.3583744 L38.8012315,50.1162562 C38.7916256,50.1051724 38.7834975,50.0940887 38.7761084,50.082266 L38.7746305,50.0807882 L38.7650246,50.064532 L38.7576355,50.0512315 L38.7561576,50.0475369 L38.7487685,50.0334975 L38.7458128,50.0246305 C38.7399015,50.012069 38.735468,49.9980296 38.7310345,49.9847291 L38.7295567,49.9810345 C38.7243842,49.9633005 38.7206897,49.9463054 38.7184729,49.9285714 L38.717734,49.9256158 C38.7162562,49.9123153 38.7155172,49.8990148 38.7147783,49.8857143 L38.7147783,49.8635468 C38.7155172,49.8502463 38.7162562,49.8369458 38.717734,49.8236453 L38.7184729,49.8206897 C38.7206897,49.8029557 38.7243842,49.7859606 38.7295567,49.7682266 L38.7310345,49.764532 C38.7347291,49.7512315 38.7399015,49.737931 38.7458128,49.7246305 L38.7487685,49.7157635 L38.7561576,49.7017241 L38.7576355,49.6980296 L38.7650246,49.6847291 L38.7746305,49.6684729 L38.7761084,49.6669951 C38.7834975,49.6551724 38.7916256,49.6433498 38.8012315,49.6330049 L39.7928571,48.3908867" id="Fill-54" fill="#FFFFFF"></path>
                <path d="M13.4172414,64.8820197 L72.503202,64.8820197 C73.7105911,64.8820197 74.6985222,65.8699507 74.6985222,67.0780788 L74.6985222,104.405172 C74.6985222,105.6133 73.7105911,106.601232 72.503202,106.601232 L13.4172414,106.601232 C12.2091133,106.601232 11.2219212,105.6133 11.2219212,104.405172 L11.2219212,67.0780788 C11.2219212,65.8699507 12.2091133,64.8820197 13.4172414,64.8820197" id="Fill-55" fill="#4D4D4D"></path>
                <polygon id="Fill-56" fill="#FFFFFF" points="14.5152709 99.7788177 71.4051724 99.7788177 71.4051724 69.237931 14.5152709 69.237931"></polygon>
                <path d="M42.9605911,67.9359606 C43.4009852,67.9359606 43.7586207,67.5783251 43.7586207,67.137931 C43.7586207,66.696798 43.4009852,66.3391626 42.9605911,66.3391626 C42.5194581,66.3391626 42.1625616,66.696798 42.1625616,67.137931 C42.1625616,67.5783251 42.5194581,67.9359606 42.9605911,67.9359606" id="Fill-57" fill="#CCCCCC"></path>
                <polygon id="Fill-58" fill="#CCCCCC" points="41.6105911 104.380049 44.3098522 104.380049 44.3098522 101.680049 41.6105911 101.680049"></polygon>
                <polyline id="Fill-59" fill="#4D4D4D" points="11.2219212 106.601232 74.6985222 106.601232 85.7238916 113.827833 0.19729064 113.827833 11.2219212 106.601232"></polyline>
                <path d="M0.19729064,113.827833 L85.7238916,113.827833 L85.7238916,116.29064 C85.7238916,117.162562 85.0100985,117.877094 84.1366995,117.877094 L1.78374384,117.877094 C0.910344828,117.877094 0.19729064,117.162562 0.19729064,116.29064 L0.19729064,113.827833" id="Fill-60" fill="#4D4D4D"></path>
                <polygon id="Fill-61" fill="#CCCCCC" points="34.3219212 117.02734 51.5977833 117.02734 51.5977833 115.926355 34.3219212 115.926355"></polygon>
                <polygon id="Fill-62" fill="#4D4D4D" points="0.19729064 115.058867 85.7238916 115.058867 85.7238916 113.827833 0.19729064 113.827833"></polygon>
                <path d="M13.8192118,110.773153 L13.6633005,110.89064 L13.8192118,110.889901 L13.8192118,110.773153 Z M13.8192118,109.304187 L13.8192118,109.414286 C13.4970443,109.642611 13.1778325,109.869458 12.855665,110.099261 C12.4862069,110.362315 12.1197044,110.629064 11.744335,110.893596 C9.88078818,110.897291 8.02610837,110.899507 6.17068966,110.902463 C6.61034483,110.636453 7.04187192,110.371182 7.47413793,110.105172 C7.90566502,109.839163 8.33793103,109.572414 8.77758621,109.306404 L13.8192118,109.304187 Z M13.8192118,107.092611 L13.8192118,108.686453 L9.78472906,108.686453 C10.208867,108.420443 10.6492611,108.155172 11.0807882,107.889163 C11.5123153,107.623153 11.9445813,107.356404 12.3842365,107.090394 L13.8192118,107.092611 Z M5.09926108,111.563054 L13.8192118,111.54532 L13.8192118,113.125123 L2.49236453,113.158374 C2.93275862,112.893103 3.36428571,112.627094 3.79581281,112.361084 C4.22807882,112.095813 4.65960591,111.829803 5.09926108,111.563054 Z M13.8192118,109.414286 L13.9751232,109.304187 L13.8192118,109.304187 L13.8192118,109.414286 Z M16.8221675,109.30197 L16.8221675,110.884729 L13.8192118,110.889901 L13.8192118,110.773153 C14.1192118,110.548522 14.4214286,110.323892 14.7192118,110.097044 C15.0650246,109.834729 15.414532,109.567241 15.7669951,109.302709 L16.8221675,109.30197 Z M16.8221675,108.503202 L16.5820197,108.685714 L16.8221675,108.685714 L16.8221675,108.503202 Z M16.8221675,107.096305 L16.8221675,107.266995 C16.5295567,107.475369 16.2406404,107.685222 15.9509852,107.892118 C15.5763547,108.158128 15.1987685,108.421182 14.8389163,108.686453 L13.8192118,108.686453 L13.8192118,107.092611 L16.8221675,107.096305 Z M13.8192118,111.54532 L16.8221675,111.539409 L16.8221675,113.116256 L13.8192118,113.125123 L13.8192118,111.54532 Z M56.4849754,107.144335 C58.0448276,107.146552 59.6039409,107.14803 61.1711823,107.150246 C61.3869458,107.405911 61.6004926,107.662315 61.8103448,107.915764 C62.0238916,108.172167 62.2426108,108.425616 62.4509852,108.680542 C60.7633005,108.680542 59.0674877,108.681281 57.38867,108.681281 C57.2371921,108.425616 57.0864532,108.172167 56.9334975,107.914286 C56.7827586,107.660837 56.6364532,107.401478 56.4849754,107.144335 Z M50.1842365,107.136946 C51.7426108,107.138424 53.3098522,107.14064 54.8697044,107.142118 C55.005665,107.4 55.1305419,107.657882 55.262069,107.912808 C55.394335,108.17069 55.517734,108.425616 55.6529557,108.681281 C53.9578818,108.68202 52.270936,108.68202 50.5839901,108.68202 C50.5197044,108.424877 50.4517241,108.168473 50.3844828,107.909852 C50.3165025,107.653448 50.2477833,107.394828 50.1842365,107.136946 Z M43.8827586,107.129557 C45.4418719,107.131034 47.0009852,107.133251 48.5682266,107.134729 C48.6169951,107.39335 48.6605911,107.65197 48.7041872,107.909113 C48.7485222,108.167734 48.8002463,108.424877 48.8408867,108.68202 C47.1524631,108.682759 45.4736453,108.682759 43.7866995,108.683498 C43.8022167,108.424138 43.8184729,108.165517 43.8347291,107.906897 C43.8509852,107.648276 43.8665025,107.388177 43.8827586,107.129557 Z M37.5812808,107.121429 C39.141133,107.123645 40.7002463,107.125123 42.2674877,107.126601 C42.2268473,107.3867 42.1913793,107.646059 42.1551724,107.905419 C42.1197044,108.164778 42.0746305,108.423399 42.0428571,108.682759 C40.3559113,108.683498 38.6689655,108.683498 36.9894089,108.684236 C37.085468,108.423399 37.1896552,108.1633 37.2857143,107.903202 C37.3817734,107.643103 37.4852217,107.382266 37.5812808,107.121429 Z M31.279803,107.1133 C32.8389163,107.115517 34.4061576,107.117734 35.9660099,107.119951 C35.8463054,107.380788 35.726601,107.642365 35.6068966,107.902463 C35.4857143,108.1633 35.3586207,108.42266 35.2463054,108.684236 C33.5504926,108.684236 31.8635468,108.684236 30.1847291,108.684236 C30.3605911,108.42266 30.5438424,108.161084 30.7285714,107.899507 C30.9118227,107.637931 31.0876847,107.376355 31.279803,107.1133 Z M24.979064,107.105911 C26.5381773,107.108128 28.1054187,107.109606 29.6726601,107.111823 C29.4650246,107.374138 29.2566502,107.636453 29.0564039,107.898768 C28.8576355,108.160345 28.641133,108.421921 28.4408867,108.684236 C26.7539409,108.684975 25.0669951,108.684975 23.3793103,108.685714 C23.6431034,108.421921 23.9150246,108.159606 24.1795567,107.896552 C24.4433498,107.633498 24.7071429,107.369704 24.979064,107.105911 Z M57.741133,109.279064 C59.4753695,109.277586 61.2110837,109.276108 62.946798,109.276108 C63.1544335,109.531034 63.370197,109.785961 63.5859606,110.041626 C63.8017241,110.296552 64.0182266,110.550739 64.2258621,110.805665 C62.3623153,110.80936 60.4995074,110.812315 58.6440887,110.815271 C58.5,110.558867 58.3433498,110.301724 58.1970443,110.047537 C58.0477833,109.789655 57.8844828,109.534729 57.741133,109.279064 Z M50.7435961,109.28202 C52.4785714,109.281281 54.2142857,109.280542 55.9573892,109.279803 C56.0778325,109.536207 56.2137931,109.79335 56.3408867,110.049015 C56.4694581,110.306158 56.6046798,110.561823 56.7325123,110.818227 C54.8697044,110.821921 53.0061576,110.824877 51.1514778,110.827833 C51.087931,110.569951 51.0192118,110.312069 50.9519704,110.055665 C50.8832512,109.797783 50.8078818,109.54064 50.7435961,109.28202 Z M43.7549261,109.286453 C45.4817734,109.284975 47.2167488,109.284236 48.9524631,109.283498 C48.9923645,109.542118 49.0403941,109.8 49.0884236,110.057882 C49.1364532,110.315764 49.1844828,110.572906 49.2243842,110.830788 C47.3615764,110.833744 45.5061576,110.8367 43.6507389,110.839655 C43.6743842,110.581773 43.6950739,110.322414 43.7061576,110.063793 C43.7187192,109.805172 43.7305419,109.546552 43.7549261,109.286453 Z M36.7581281,109.290887 C38.4931034,109.289409 40.2206897,109.289409 41.9549261,109.287931 C41.9157635,109.547291 41.8795567,109.805911 41.8433498,110.06601 C41.8078818,110.325369 41.7716749,110.584729 41.7317734,110.844089 C39.8682266,110.846305 38.0128079,110.85 36.1581281,110.852217 C36.2615764,110.592118 36.36133,110.333498 36.4618227,110.07266 C36.5608374,109.8133 36.653202,109.551724 36.7581281,109.290887 Z M29.753202,109.294581 C31.4874384,109.293842 33.2231527,109.293103 34.9662562,109.292365 C34.8384236,109.553202 34.7187192,109.814039 34.5982759,110.074877 C34.4785714,110.334975 34.358867,110.595813 34.2391626,110.855911 C32.3748768,110.859606 30.512069,110.861823 28.6566502,110.865517 C28.8406404,110.603202 29.0283251,110.343103 29.2086207,110.080788 C29.3874384,109.819951 29.5692118,109.556897 29.753202,109.294581 Z M22.7637931,109.298276 C24.4913793,109.298276 26.2344828,109.296798 27.9694581,109.296059 C27.7610837,109.558374 27.5586207,109.819212 27.3539409,110.082266 C27.1507389,110.343103 26.9460591,110.606897 26.7384236,110.868473 C24.8748768,110.872167 23.012069,110.875123 21.1566502,110.878079 C21.4285714,110.615025 21.6938424,110.353448 21.9642857,110.088916 C22.2295567,109.82734 22.4918719,109.562808 22.7637931,109.298276 Z M43.6108374,111.483251 C45.5216749,111.479557 47.4251232,111.475123 49.3440887,111.471429 C49.3839901,111.72931 49.4320197,111.987931 49.4800493,112.245074 C49.5280788,112.502217 49.5761084,112.760099 49.6241379,113.01798 C47.5847291,113.023892 45.5534483,113.029803 43.5221675,113.036453 C43.5391626,112.777833 43.5502463,112.518473 43.5628079,112.259852 C43.5746305,112.001232 43.5945813,111.74335 43.6108374,111.483251 Z M16.8221675,107.266995 L17.0623153,107.096305 L16.8221675,107.096305 L16.8221675,107.266995 Z M16.8221675,108.685714 L16.8221675,108.503202 C17.0896552,108.3 17.3608374,108.097537 17.629803,107.893596 C17.9756158,107.630542 18.3258621,107.363793 18.6775862,107.098522 C20.2366995,107.1 21.7958128,107.102217 23.3630542,107.104433 C23.0756158,107.368227 22.7874384,107.63202 22.5,107.895074 C22.2125616,108.158128 21.9162562,108.421921 21.6362069,108.684975 L16.8221675,108.685714 Z M16.8221675,110.884729 L16.8221675,109.30197 L20.9726601,109.299754 C20.6763547,109.563547 20.3889163,109.828079 20.1007389,110.091133 C19.8125616,110.354926 19.5332512,110.617241 19.2369458,110.881034 L16.8221675,110.884729 Z M69.167734,111.430049 L69.167734,112.959606 L67.0884236,112.965517 C61.9706897,112.981034 56.8455665,112.996552 51.7270936,113.01133 C51.6554187,112.754926 51.591133,112.497044 51.5194581,112.239901 C51.4470443,111.982759 51.3834975,111.725616 51.3192118,111.466995 C56.1251232,111.457389 60.9310345,111.447044 65.7369458,111.437438 L69.167734,111.430049 Z M69.167734,109.271675 L69.167734,110.797537 L66.1455665,110.802709 C65.9135468,110.547783 65.6837438,110.292118 65.4495074,110.03867 C65.2115764,109.782266 64.9699507,109.528818 64.7453202,109.274631 L69.167734,109.271675 Z M69.167734,108.609606 C68.9054187,108.379803 68.6371921,108.149261 68.3682266,107.919458 C68.0726601,107.66601 67.7682266,107.411823 67.4726601,107.157635 C65.9046798,107.156158 64.3455665,107.15468 62.7864532,107.151724 C63.026601,107.407389 63.255665,107.663793 63.4906404,107.917241 C63.7278325,108.172906 63.9628079,108.426355 64.1940887,108.680542 L69.167734,108.680542 L69.167734,108.609606 Z M69.167734,107.159113 L69.167734,107.22266 L69.087931,107.159113 L69.167734,107.159113 Z M16.8221675,111.539409 L23.3630542,111.526108 C29.4487685,111.512808 35.5426108,111.500246 41.6431034,111.487685 C41.6039409,111.747044 41.567734,112.006404 41.5315271,112.265764 C41.4953202,112.525123 41.4517241,112.783744 41.4199507,113.042365 C34.9270936,113.062315 28.4327586,113.081527 21.9480296,113.100739 L16.8221675,113.116256 L16.8221675,111.539409 Z M71.7347291,109.270197 C73.4704433,109.269458 75.2046798,109.26798 76.9485222,109.267241 C77.3246305,109.519951 77.7096059,109.770443 78.0923645,110.024631 C78.4684729,110.275123 78.8519704,110.527833 79.2273399,110.780542 C77.3637931,110.784236 75.5009852,110.787192 73.6455665,110.790148 C73.3256158,110.5367 73.0078818,110.281773 72.6945813,110.031281 C72.3753695,109.776355 72.0465517,109.524384 71.7347291,109.270197 Z M69.167734,107.22266 C69.4610837,107.456158 69.7536946,107.688916 70.0470443,107.920197 C70.3669951,108.173645 70.6788177,108.427094 70.9906404,108.679803 C72.6783251,108.679803 74.3660099,108.679803 76.0610837,108.679064 C75.6849754,108.427094 75.3073892,108.175862 74.9246305,107.922414 C74.5485222,107.671921 74.1657635,107.417734 73.782266,107.165025 L69.167734,107.159113 L69.167734,107.22266 Z M69.167734,108.680542 L69.167734,108.609606 L69.2482759,108.680542 L69.167734,108.680542 Z M69.167734,110.797537 L69.167734,109.271675 L69.9435961,109.271675 C70.2399015,109.525862 70.5391626,109.775616 70.8391626,110.032759 C71.1310345,110.283251 71.4310345,110.539655 71.7192118,110.793103 L69.167734,110.797537 Z M69.167734,112.959606 L69.167734,111.430049 L80.170936,111.406404 C80.5551724,111.659852 80.9305419,111.911823 81.3147783,112.163054 C81.6982759,112.415764 82.0736453,112.667734 82.4586207,112.919704 L69.167734,112.959606 Z" id="Fill-63" fill="#CCCCCC"></path>
                <polygon id="Fill-64" fill="#A2C9EB" points="18.5896552 72.5889163 67.3300493 72.5889163 67.3300493 69.237931 18.5896552 69.237931"></polygon>
                <polygon id="Fill-65" fill="#ED7B5C" points="31.6182266 79.7312808 54.3014778 79.7312808 54.3014778 74.6275862 31.6182266 74.6275862"></polygon>
                <polygon id="Fill-66" fill="#5896CC" points="18.5896552 99.7788177 67.3300493 99.7788177 67.3300493 85.7083744 18.5896552 85.7083744"></polygon>
                <polygon id="Fill-67" fill="#91BDE3" points="27.9509852 83.8669951 57.9687192 83.8669951 57.9687192 81.7270936 27.9509852 81.7270936"></polygon>
                <path d="M64.2598522,90.4958128 C64.1793103,90.3916256 64.1985222,90.2423645 64.3019704,90.1625616 C64.4061576,90.0827586 64.5546798,90.1012315 64.6359606,90.2054187 L65.7014778,91.5849754 C65.708867,91.5938424 65.7155172,91.6041872 65.7206897,91.6137931 L65.7221675,91.6152709 L65.7229064,91.6174877 L65.7243842,91.6197044 C65.7273399,91.6256158 65.7310345,91.632266 65.7332512,91.6381773 L65.7384236,91.65 L65.7406404,91.6544335 L65.7450739,91.6699507 L65.7487685,91.6869458 C65.7502463,91.6935961 65.7517241,91.7009852 65.7517241,91.7091133 L65.7524631,91.7098522 L65.753202,91.720197 L65.753202,91.7475369 L65.7524631,91.7578818 L65.7517241,91.7593596 L65.7487685,91.7807882 L65.7450739,91.7977833 L65.7406404,91.8133005 L65.7384236,91.817734 L65.7332512,91.8295567 L65.7243842,91.8480296 L65.7229064,91.8502463 L65.7221675,91.8524631 L65.7206897,91.8539409 C65.7155172,91.8642857 65.708867,91.8738916 65.7014778,91.8827586 L64.6359606,93.2630542 C64.5546798,93.3665025 64.4061576,93.3857143 64.3019704,93.3051724 C64.1985222,93.2253695 64.1793103,93.0761084 64.2598522,92.9719212 L65.2160099,91.7334975 L64.2598522,90.4958128" id="Fill-68" fill="#FFFFFF"></path>
                <path d="M21.2852217,90.2054187 C21.3650246,90.1012315 21.5142857,90.0827586 21.617734,90.1625616 C21.7211823,90.2423645 21.741133,90.3916256 21.6605911,90.4958128 L20.7044335,91.7334975 L21.6605911,92.9719212 C21.741133,93.0761084 21.7211823,93.2253695 21.617734,93.3051724 C21.5142857,93.3857143 21.3650246,93.3665025 21.2852217,93.2630542 L20.2182266,91.8827586 C20.2115764,91.8738916 20.2049261,91.8642857 20.1990148,91.8539409 L20.1982759,91.8524631 L20.196798,91.8502463 L20.1960591,91.8480296 C20.1923645,91.8421182 20.1894089,91.8362069 20.1864532,91.8295567 L20.1820197,91.817734 L20.1805419,91.8133005 L20.1753695,91.7977833 L20.170936,91.7807882 C20.1694581,91.7741379 20.1687192,91.7667488 20.1679803,91.7593596 L20.1672414,91.7578818 L20.1672414,91.7475369 L20.1665025,91.7401478 L20.1665025,91.7283251 L20.1672414,91.720197 L20.1672414,91.7098522 L20.1679803,91.7091133 L20.170936,91.6869458 L20.1753695,91.6699507 L20.1805419,91.6544335 L20.1820197,91.65 L20.1864532,91.6381773 C20.1894089,91.632266 20.1923645,91.6256158 20.1960591,91.6197044 L20.196798,91.6174877 L20.1982759,91.6152709 L20.1990148,91.6137931 C20.2049261,91.6041872 20.2115764,91.5938424 20.2182266,91.5849754 L21.2852217,90.2054187" id="Fill-69" fill="#FFFFFF"></path>
                <path d="M142.567241,66.4559113 L123.302217,66.4559113 C119.571429,66.4559113 116.518966,69.5083744 116.518966,73.2399015 L116.518966,106.497783 C116.518966,110.22931 119.571429,113.281773 123.302217,113.281773 L142.567241,113.281773 C146.298768,113.281773 149.351232,110.22931 149.351232,106.497783 L149.351232,73.2399015 C149.351232,69.5083744 146.298768,66.4559113 142.567241,66.4559113" id="Fill-70" fill="#4D4D4D"></path>
                <path d="M146.920936,70.3825123 L118.95,70.3825123 C118.894581,70.3825123 118.850985,70.4268473 118.850985,70.4815271 L118.850985,108.863054 C118.850985,108.917734 118.894581,108.962069 118.95,108.962069 L146.920936,108.962069 C146.975616,108.962069 147.019951,108.917734 147.019951,108.863054 L147.019951,70.4815271 C147.019951,70.4268473 146.975616,70.3825123 146.920936,70.3825123" id="Fill-71" fill="#FFFFFF"></path>
                <path d="M136.536207,67.614532 L129.33399,67.614532 C129.138916,67.614532 128.978571,67.7741379 128.978571,67.9692118 C128.978571,68.1650246 129.138916,68.3246305 129.33399,68.3246305 L136.536207,68.3246305 C136.73202,68.3246305 136.891626,68.1650246 136.891626,67.9692118 C136.891626,67.7741379 136.73202,67.614532 136.536207,67.614532" id="Fill-72" fill="#CCCCCC"></path>
                <path d="M132.934729,112.25468 C133.596798,112.25468 134.135468,111.71601 134.135468,111.05468 C134.135468,110.39335 133.596798,109.85468 132.934729,109.85468 C132.274138,109.85468 131.734729,110.39335 131.734729,111.05468 C131.734729,111.71601 132.274138,112.25468 132.934729,112.25468" id="Fill-73" fill="#CCCCCC"></path>
                <polygon id="Fill-74" fill="#FFFFFF" points="118.850985 108.962069 147.019951 108.962069 147.019951 70.3825123 118.850985 70.3825123"></polygon>
                <polygon id="Fill-75" fill="#91BDE3" points="118.850985 72.2564039 147.019951 72.2564039 147.019951 70.3825123 118.850985 70.3825123"></polygon>
                <polygon id="Fill-76" fill="#ED7B5C" points="126.379803 76.2487685 139.489655 76.2487685 139.489655 73.3958128 126.379803 73.3958128"></polygon>
                <polygon id="Fill-77" fill="#5896CC" points="118.850985 87.4559113 147.019951 87.4559113 147.019951 79.5894089 118.850985 79.5894089"></polygon>
                <polygon id="Fill-78" fill="#91BDE3" points="124.260591 78.5600985 141.609606 78.5600985 141.609606 77.364532 124.260591 77.364532"></polygon>
                <polygon id="Fill-79" fill="#FFD47F" points="120.556404 95.3918719 127.630788 95.3918719 127.630788 89.0357143 120.556404 89.0357143"></polygon>
                <polygon id="Fill-80" fill="#FA9891" points="129.398276 95.3918719 136.471921 95.3918719 136.471921 89.0357143 129.398276 89.0357143"></polygon>
                <polygon id="Fill-81" fill="#A2C9EB" points="138.240148 95.3918719 145.313793 95.3918719 145.313793 89.0357143 138.240148 89.0357143"></polygon>
                <polygon id="Fill-82" fill="#91BDE3" points="118.850985 108.962069 147.019951 108.962069 147.019951 105.532759 118.850985 105.532759"></polygon>
                <polygon id="Fill-83" fill="#CCCCCC" points="120.556404 97.4600985 127.630788 97.4600985 127.630788 96.2637931 120.556404 96.2637931"></polygon>
                <polygon id="Fill-84" fill="#CCCCCC" points="120.556404 99.5150246 127.630788 99.5150246 127.630788 98.3194581 120.556404 98.3194581"></polygon>
                <polygon id="Fill-85" fill="#CCCCCC" points="120.556404 101.569951 127.630788 101.569951 127.630788 100.374384 120.556404 100.374384"></polygon>
                <polygon id="Fill-86" fill="#CCCCCC" points="120.556404 103.624877 125.035714 103.624877 125.035714 102.42931 120.556404 102.42931"></polygon>
                <polygon id="Fill-87" fill="#CCCCCC" points="129.398276 97.4600985 136.471921 97.4600985 136.471921 96.2637931 129.398276 96.2637931"></polygon>
                <polygon id="Fill-88" fill="#CCCCCC" points="129.398276 99.5150246 136.471921 99.5150246 136.471921 98.3194581 129.398276 98.3194581"></polygon>
                <polygon id="Fill-89" fill="#CCCCCC" points="129.398276 101.569951 136.471921 101.569951 136.471921 100.374384 129.398276 100.374384"></polygon>
                <polygon id="Fill-90" fill="#CCCCCC" points="129.398276 103.624877 133.877586 103.624877 133.877586 102.42931 129.398276 102.42931"></polygon>
                <polygon id="Fill-91" fill="#CCCCCC" points="138.240148 97.4600985 145.313793 97.4600985 145.313793 96.2637931 138.240148 96.2637931"></polygon>
                <polygon id="Fill-92" fill="#CCCCCC" points="138.240148 99.5150246 145.313793 99.5150246 145.313793 98.3194581 138.240148 98.3194581"></polygon>
                <polygon id="Fill-93" fill="#CCCCCC" points="138.240148 101.569951 145.313793 101.569951 145.313793 100.374384 138.240148 100.374384"></polygon>
                <polygon id="Fill-94" fill="#CCCCCC" points="138.240148 103.624877 142.718719 103.624877 142.718719 102.42931 138.240148 102.42931"></polygon>
                <path d="M145.167488,82.3330049 C145.086207,82.2302956 145.103202,82.0802956 145.205911,81.9990148 C145.307882,81.9169951 145.458621,81.9339901 145.539901,82.0366995 L146.155419,82.8081281 C146.16133,82.8155172 146.167241,82.8221675 146.170936,82.8295567 L146.171675,82.8310345 L146.177586,82.8406404 L146.182759,82.8487685 L146.183498,82.8509852 L146.187931,82.8598522 L146.190148,82.8650246 C146.193842,82.8731527 146.196798,82.8820197 146.199015,82.8901478 L146.199754,82.8931034 C146.202709,82.9034483 146.204926,82.9137931 146.206404,82.9248768 L146.207143,82.9263547 C146.207882,82.9352217 146.208621,82.9433498 146.20936,82.9522167 L146.20936,82.9655172 C146.208621,82.9736453 146.207882,82.9817734 146.207143,82.9899015 L146.206404,82.9921182 C146.204926,83.0024631 146.202709,83.0135468 146.199754,83.0238916 L146.199015,83.0268473 C146.196798,83.0349754 146.193842,83.0438424 146.190148,83.0512315 L146.187931,83.0571429 L146.183498,83.0660099 L146.182759,83.0682266 L146.177586,83.0763547 L146.171675,83.0859606 L146.170936,83.0874384 C146.167241,83.0948276 146.16133,83.1014778 146.155419,83.108867 L145.539901,83.8802956 C145.458621,83.982266 145.307882,84 145.205911,83.9179803 C145.103202,83.8359606 145.086207,83.6866995 145.167488,83.5839901 L145.667734,82.958867 L145.167488,82.3330049" id="Fill-95" fill="#FFFFFF"></path>
                <path d="M120.330296,82.0366995 C120.412315,81.9339901 120.561576,81.9169951 120.664286,81.9990148 C120.766995,82.0802956 120.78399,82.2302956 120.702709,82.3330049 L120.203202,82.958867 L120.702709,83.5839901 C120.78399,83.6866995 120.766995,83.8359606 120.664286,83.9179803 C120.561576,84 120.412315,83.982266 120.330296,83.8802956 L119.714778,83.108867 C119.708867,83.1014778 119.703695,83.0948276 119.698522,83.0874384 L119.697783,83.0859606 L119.691872,83.0763547 L119.688177,83.0682266 L119.6867,83.0660099 L119.683005,83.0571429 L119.680049,83.0512315 C119.677094,83.0438424 119.673399,83.0349754 119.671182,83.0268473 L119.670443,83.0238916 C119.666749,83.0135468 119.664532,83.0024631 119.663054,82.9921182 L119.663054,82.9899015 C119.661576,82.9817734 119.660837,82.9736453 119.660837,82.9655172 L119.660837,82.9522167 C119.660837,82.9433498 119.661576,82.9352217 119.663054,82.9263547 L119.663054,82.9248768 C119.665271,82.9137931 119.666749,82.9034483 119.670443,82.8931034 L119.671182,82.8901478 C119.673399,82.8820197 119.677094,82.8738916 119.680049,82.8650246 L119.683005,82.8598522 L119.6867,82.8509852 L119.688177,82.8487685 L119.691872,82.8406404 L119.697783,82.8310345 L119.698522,82.8295567 C119.703695,82.8221675 119.708867,82.8155172 119.714778,82.8081281 L120.330296,82.0366995" id="Fill-96" fill="#FFFFFF"></path>
                <path d="M105.686453,85.0034483 L118.30197,85.0034483 C120.694581,85.0034483 122.65197,86.9608374 122.65197,89.3534483 L122.65197,113.527094 C122.65197,115.919704 120.694581,117.877094 118.302709,117.877094 L105.686453,117.877094 C103.293842,117.877094 101.337192,115.919704 101.337192,113.527094 L101.337192,89.3534483 C101.337192,86.9608374 103.293842,85.0034483 105.686453,85.0034483" id="Fill-97" fill="#46749C"></path>
                <polyline id="Fill-98" fill="#FFFFFF" points="102.592611 88.4371921 121.396552 88.4371921 121.396552 113.31133 102.592611 113.312069 102.592611 88.4371921"></polyline>
                <path d="M108.836453,86.8197044 L115.152709,86.8197044 C115.324138,86.8197044 115.464532,86.6793103 115.464532,86.5078818 L115.464532,86.5071429 C115.464532,86.3357143 115.324138,86.1953202 115.152709,86.1953202 L108.836453,86.1953202 C108.665025,86.1953202 108.524631,86.3357143 108.524631,86.5071429 L108.524631,86.5078818 C108.524631,86.6793103 108.665025,86.8197044 108.836453,86.8197044" id="Fill-99" fill="#A2C9EB"></path>
                <path d="M106.673645,116.116995 L117.315517,116.116995 C117.580788,116.116995 117.798768,115.899754 117.798768,115.633744 L117.798768,115.633005 C117.798768,115.366995 117.580788,115.149754 117.315517,115.149754 L106.673645,115.149754 C106.407635,115.149754 106.190394,115.366995 106.190394,115.633005 L106.190394,115.633744 C106.190394,115.899754 106.407635,116.116995 106.673645,116.116995" id="Fill-100" fill="#A2C9EB"></path>
                <path d="M111.993842,113.74064 C113.039409,113.74064 113.887685,114.588177 113.887685,115.633744 C113.887685,116.678571 113.039409,117.526847 111.994581,117.526847 C110.949015,117.526847 110.101478,116.67931 110.101478,115.633744 C110.101478,114.588177 110.949015,113.74064 111.993842,113.74064" id="Fill-101" fill="#46749C"></path>
                <path d="M111.993842,114.298522 C112.731281,114.298522 113.328325,114.896305 113.328325,115.633744 C113.328325,116.370443 112.731281,116.967488 111.993842,116.967488 C111.257143,116.967488 110.660099,116.370443 110.660099,115.633744 C110.660099,114.896305 111.257143,114.298522 111.993842,114.298522" id="Fill-102" fill="#A2C9EB"></path>
                <polygon id="Fill-103" fill="#FFFFFF" points="102.591872 113.31133 121.396552 113.31133 121.396552 88.4371921 102.591872 88.4371921"></polygon>
                <polygon id="Fill-104" fill="#A2C9EB" points="102.591872 89.6453202 121.396552 89.6453202 121.396552 88.4371921 102.591872 88.4371921"></polygon>
                <polygon id="Fill-105" fill="#ED7B5C" points="107.618719 92.2197044 116.369704 92.2197044 116.369704 90.379803 107.618719 90.379803"></polygon>
                <polygon id="Fill-106" fill="#5896CC" points="102.591872 99.4448276 121.396552 99.4448276 121.396552 94.3736453 102.591872 94.3736453"></polygon>
                <polygon id="Fill-107" fill="#91BDE3" points="106.203695 93.7100985 117.784729 93.7100985 117.784729 92.93867 106.203695 92.93867"></polygon>
                <polygon id="Fill-108" fill="#FFD47F" points="103.731281 104.561823 108.452217 104.561823 108.452217 100.463793 103.731281 100.463793"></polygon>
                <polygon id="Fill-109" fill="#FA9891" points="109.633744 104.561823 114.355419 104.561823 114.355419 100.463793 109.633744 100.463793"></polygon>
                <polygon id="Fill-110" fill="#A2C9EB" points="115.535468 104.561823 120.257882 104.561823 120.257882 100.463793 115.535468 100.463793"></polygon>
                <polygon id="Fill-111" fill="#A2C9EB" points="102.591872 113.31133 121.396552 113.31133 121.396552 111.100493 102.591872 111.100493"></polygon>
                <polygon id="Fill-112" fill="#CCCCCC" points="103.731281 105.895567 108.452217 105.895567 108.452217 105.124138 103.731281 105.124138"></polygon>
                <polygon id="Fill-113" fill="#CCCCCC" points="103.731281 107.220443 108.452217 107.220443 108.452217 106.449015 103.731281 106.449015"></polygon>
                <polygon id="Fill-114" fill="#CCCCCC" points="103.731281 108.54532 108.452217 108.54532 108.452217 107.773892 103.731281 107.773892"></polygon>
                <polygon id="Fill-115" fill="#CCCCCC" points="103.731281 109.870197 106.720936 109.870197 106.720936 109.099507 103.731281 109.099507"></polygon>
                <polygon id="Fill-116" fill="#CCCCCC" points="109.633744 105.895567 114.355419 105.895567 114.355419 105.124138 109.633744 105.124138"></polygon>
                <polygon id="Fill-117" fill="#CCCCCC" points="109.633744 107.220443 114.355419 107.220443 114.355419 106.449015 109.633744 106.449015"></polygon>
                <polygon id="Fill-118" fill="#CCCCCC" points="109.633744 108.54532 114.355419 108.54532 114.355419 107.773892 109.633744 107.773892"></polygon>
                <polygon id="Fill-119" fill="#CCCCCC" points="109.633744 109.870197 112.623399 109.870197 112.623399 109.099507 109.633744 109.099507"></polygon>
                <polygon id="Fill-120" fill="#CCCCCC" points="115.535468 105.895567 120.257882 105.895567 120.257882 105.124138 115.535468 105.124138"></polygon>
                <polygon id="Fill-121" fill="#CCCCCC" points="115.535468 107.220443 120.257882 107.220443 120.257882 106.449015 115.535468 106.449015"></polygon>
                <polygon id="Fill-122" fill="#CCCCCC" points="115.535468 108.54532 120.257882 108.54532 120.257882 107.773892 115.535468 107.773892"></polygon>
                <polygon id="Fill-123" fill="#CCCCCC" points="115.535468 109.870197 118.525123 109.870197 118.525123 109.099507 115.535468 109.099507"></polygon>
                <path d="M119.970443,96.4359606 C119.917241,96.3694581 119.929064,96.2719212 119.996305,96.2187192 C120.062069,96.1647783 120.160345,96.176601 120.212808,96.2431034 L120.614778,96.7463054 C120.618473,96.75 120.622167,96.7551724 120.625123,96.7603448 L120.625862,96.7603448 L120.629557,96.7669951 L120.632512,96.7729064 L120.633251,96.7743842 L120.636207,96.7795567 L120.637685,96.7832512 C120.639901,96.7884236 120.642118,96.794335 120.643596,96.7995074 L120.643596,96.8009852 C120.645813,96.8083744 120.647291,96.8150246 120.64803,96.8224138 L120.64803,96.8238916 C120.649507,96.8283251 120.649507,96.8342365 120.649507,96.8394089 L120.649507,96.8482759 C120.649507,96.8541872 120.649507,96.8593596 120.64803,96.864532 L120.64803,96.8660099 C120.647291,96.8726601 120.645813,96.8800493 120.643596,96.8874384 L120.643596,96.8881773 C120.642118,96.8940887 120.639901,96.8992611 120.637685,96.9044335 L120.636207,96.9081281 L120.633251,96.9140394 L120.632512,96.9155172 L120.629557,96.9206897 L120.625862,96.9273399 L120.625123,96.9280788 C120.622167,96.9332512 120.618473,96.9369458 120.614778,96.9421182 L120.212808,97.4445813 C120.160345,97.5118227 120.062069,97.5229064 119.996305,97.4697044 C119.929064,97.4165025 119.917241,97.3189655 119.970443,97.2517241 L120.297044,96.8438424 L119.970443,96.4359606" id="Fill-124" fill="#FFFFFF"></path>
                <path d="M103.774877,96.2431034 C103.828818,96.176601 103.925616,96.1647783 103.992857,96.2187192 C104.060099,96.2719212 104.071182,96.3694581 104.01798,96.4359606 L103.692118,96.8438424 L104.01798,97.2517241 C104.071182,97.3189655 104.060099,97.4165025 103.992857,97.4697044 C103.925616,97.5229064 103.828818,97.5118227 103.774877,97.4445813 L103.372906,96.9421182 C103.37069,96.9369458 103.366995,96.9332512 103.3633,96.9280788 L103.3633,96.9273399 L103.358867,96.9206897 L103.355911,96.9155172 L103.355911,96.9140394 L103.352956,96.9081281 L103.350739,96.9044335 C103.348522,96.8992611 103.347044,96.8940887 103.344828,96.8881773 L103.344828,96.8874384 C103.342611,96.8800493 103.341133,96.8726601 103.340394,96.8660099 L103.340394,96.864532 C103.339655,96.8593596 103.339655,96.8541872 103.338916,96.8482759 L103.338916,96.8394089 C103.339655,96.8342365 103.339655,96.8283251 103.340394,96.8238916 L103.340394,96.8224138 C103.341133,96.8150246 103.342611,96.8083744 103.344828,96.8009852 L103.344828,96.7995074 C103.347044,96.794335 103.348522,96.7884236 103.350739,96.7832512 L103.352956,96.7795567 L103.355911,96.7743842 L103.355911,96.7729064 L103.358867,96.7669951 L103.3633,96.7603448 C103.366995,96.7551724 103.37069,96.75 103.372906,96.7463054 L103.774877,96.2431034" id="Fill-125" fill="#FFFFFF"></path>
                <path d="M95.4118227,100.344089 L101.841872,100.344089 C103.061823,100.344089 104.058621,101.341626 104.058621,102.560837 L104.058621,119.854433 C104.058621,121.073645 103.061823,122.071182 101.841872,122.071182 L95.4125616,122.071182 C94.1933498,122.071182 93.1950739,121.073645 93.1950739,119.855172 L93.1950739,102.561576 C93.1950739,101.341626 94.1926108,100.344089 95.4118227,100.344089" id="Fill-126" fill="#4D4D4D"></path>
                <polygon id="Fill-127" fill="#FFFFFF" points="93.9916256 119.054187 103.271675 119.054187 103.271675 102.614039 93.9916256 102.614039"></polygon>
                <path d="M96.5438424,101.544089 L100.719458,101.544089 C100.832512,101.544089 100.924877,101.451724 100.924877,101.337931 C100.924877,101.224877 100.832512,101.131773 100.719458,101.131773 L96.5438424,101.131773 C96.4307882,101.131773 96.3384236,101.224877 96.3384236,101.337931 C96.3384236,101.451724 96.4307882,101.544089 96.5438424,101.544089" id="Fill-128" fill="#CCCCCC"></path>
                <path d="M95.1155172,120.908128 L102.147783,120.908128 C102.324384,120.908128 102.467734,120.764039 102.467734,120.588916 L102.467734,120.588177 C102.467734,120.412315 102.324384,120.268966 102.147783,120.268966 L95.1155172,120.268966 C94.9389163,120.268966 94.7955665,120.412315 94.7955665,120.588177 L94.7955665,120.588916 C94.7955665,120.764039 94.9389163,120.908128 95.1155172,120.908128" id="Fill-129" fill="#CCCCCC"></path>
                <path d="M98.6275862,119.337192 C99.3184729,119.337192 99.8785714,119.89803 99.8785714,120.588916 C99.8785714,121.279803 99.3184729,121.839901 98.6275862,121.839901 C97.9359606,121.839901 97.3758621,121.279803 97.3758621,120.588916 C97.3758621,119.89803 97.9359606,119.337192 98.6275862,119.337192" id="Fill-130" fill="#4D4D4D"></path>
                <path d="M98.6275862,119.70665 C99.114532,119.70665 99.5091133,120.101232 99.5091133,120.588916 C99.5091133,121.075123 99.114532,121.470443 98.6275862,121.470443 C98.1399015,121.470443 97.7445813,121.075862 97.7445813,120.588916 C97.7445813,120.101232 98.1399015,119.70665 98.6275862,119.70665" id="Fill-131" fill="#CCCCCC"></path>
                <polygon id="Fill-132" fill="#FFFFFF" points="93.9916256 114.888916 103.271675 114.888916 103.271675 102.614039 93.9916256 102.614039"></polygon>
                <polygon id="Fill-133" fill="#A2C9EB" points="93.9916256 103.209606 103.271675 103.209606 103.271675 102.614039 93.9916256 102.614039"></polygon>
                <polygon id="Fill-134" fill="#ED7B5C" points="96.4721675 104.479803 100.791133 104.479803 100.791133 103.572414 96.4721675 103.572414"></polygon>
                <polygon id="Fill-135" fill="#5896CC" points="93.9916256 108.045813 103.271675 108.045813 103.271675 105.543103 93.9916256 105.543103"></polygon>
                <polygon id="Fill-136" fill="#91BDE3" points="95.7738916 105.215764 101.489409 105.215764 101.489409 104.835222 95.7738916 104.835222"></polygon>
                <polygon id="Fill-137" fill="#FFD47F" points="94.5539409 110.571429 96.8837438 110.571429 96.8837438 108.548276 94.5539409 108.548276"></polygon>
                <polygon id="Fill-138" fill="#FA9891" points="97.4660099 110.571429 99.7972906 110.571429 99.7972906 108.548276 97.4660099 108.548276"></polygon>
                <polygon id="Fill-139" fill="#A2C9EB" points="100.379557 110.571429 102.70936 110.571429 102.70936 108.548276 100.379557 108.548276"></polygon>
                <polygon id="Fill-140" fill="#A2C9EB" points="93.9916256 119.054187 103.271675 119.054187 103.271675 117.962808 93.9916256 117.962808"></polygon>
                <polygon id="Fill-141" fill="#CCCCCC" points="94.5539409 111.229064 96.8837438 111.229064 96.8837438 110.848522 94.5539409 110.848522"></polygon>
                <polygon id="Fill-142" fill="#CCCCCC" points="94.5539409 111.882266 96.8837438 111.882266 96.8837438 111.502463 94.5539409 111.502463"></polygon>
                <polygon id="Fill-143" fill="#CCCCCC" points="94.5539409 112.536946 96.8837438 112.536946 96.8837438 112.156404 94.5539409 112.156404"></polygon>
                <polygon id="Fill-144" fill="#CCCCCC" points="94.5539409 113.190148 96.0288177 113.190148 96.0288177 112.809606 94.5539409 112.809606"></polygon>
                <polygon id="Fill-145" fill="#CCCCCC" points="97.4660099 111.229064 99.7972906 111.229064 99.7972906 110.848522 97.4660099 110.848522"></polygon>
                <polygon id="Fill-146" fill="#CCCCCC" points="97.4660099 111.882266 99.7972906 111.882266 99.7972906 111.502463 97.4660099 111.502463"></polygon>
                <polygon id="Fill-147" fill="#CCCCCC" points="97.4660099 112.536946 99.7972906 112.536946 99.7972906 112.156404 97.4660099 112.156404"></polygon>
                <polygon id="Fill-148" fill="#CCCCCC" points="97.4660099 113.190148 98.9416256 113.190148 98.9416256 112.809606 97.4660099 112.809606"></polygon>
                <polygon id="Fill-149" fill="#CCCCCC" points="100.379557 111.229064 102.70936 111.229064 102.70936 110.848522 100.379557 110.848522"></polygon>
                <polygon id="Fill-150" fill="#CCCCCC" points="100.379557 111.882266 102.70936 111.882266 102.70936 111.502463 100.379557 111.502463"></polygon>
                <polygon id="Fill-151" fill="#CCCCCC" points="100.379557 112.536946 102.70936 112.536946 102.70936 112.156404 100.379557 112.156404"></polygon>
                <polygon id="Fill-152" fill="#CCCCCC" points="100.379557 113.190148 101.854433 113.190148 101.854433 112.809606 100.379557 112.809606"></polygon>
                <polygon id="Fill-153" fill="#91BDE3" points="94.5539409 115.899754 102.70936 115.899754 102.70936 113.87734 94.5539409 113.87734"></polygon>
                <polygon id="Fill-154" fill="#91BDE3" points="94.5539409 116.765025 102.70936 116.765025 102.70936 116.384483 94.5539409 116.384483"></polygon>
                <polygon id="Fill-155" fill="#91BDE3" points="94.5539409 117.400493 98.6312808 117.400493 98.6312808 117.019951 94.5539409 117.019951"></polygon>
                <path d="M102.735222,106.648522 C102.707882,106.614532 102.713793,106.563547 102.748522,106.536946 C102.782512,106.508867 102.832759,106.514778 102.860099,106.549507 L103.066256,106.808128 C103.068473,106.810345 103.069951,106.8133 103.071429,106.814778 L103.071429,106.815517 L103.073645,106.818473 L103.075862,106.822167 L103.07734,106.825123 L103.078079,106.82734 C103.079557,106.829557 103.080296,106.832512 103.081034,106.835468 L103.081773,106.836207 C103.082512,106.839901 103.083251,106.843596 103.08399,106.847291 L103.08399,106.84803 C103.08399,106.850246 103.084729,106.853202 103.084729,106.856158 L103.084729,106.860591 C103.084729,106.863547 103.08399,106.866502 103.08399,106.868719 L103.08399,106.869458 C103.083251,106.873153 103.082512,106.876847 103.081773,106.880542 L103.081034,106.881281 C103.080296,106.884236 103.079557,106.886453 103.078079,106.890148 L103.07734,106.891626 L103.075862,106.893842 L103.075862,106.89532 L103.073645,106.897537 L103.071429,106.901232 C103.069951,106.904187 103.068473,106.906404 103.066256,106.908621 L102.860099,107.16798 C102.832759,107.20197 102.782512,107.207882 102.748522,107.180542 C102.713793,107.153202 102.707882,107.102956 102.735222,107.068227 L102.902956,106.858374 L102.735222,106.648522" id="Fill-156" fill="#FFFFFF"></path>
                <path d="M94.403202,106.549507 C94.4305419,106.514778 94.4807882,106.508867 94.5147783,106.536946 C94.5495074,106.563547 94.5554187,106.614532 94.5280788,106.648522 L94.3603448,106.858374 L94.5280788,107.068227 C94.5554187,107.102956 94.5495074,107.153202 94.5147783,107.180542 C94.4807882,107.207882 94.4305419,107.20197 94.403202,107.16798 L94.1963054,106.908621 C94.1948276,106.906404 94.1933498,106.904187 94.191133,106.901232 L94.1896552,106.897537 L94.1874384,106.89532 L94.1874384,106.893842 L94.1859606,106.891626 L94.1852217,106.890148 C94.1837438,106.887192 94.1830049,106.884236 94.182266,106.881281 L94.1815271,106.880542 C94.1807882,106.876847 94.1800493,106.873153 94.1793103,106.869458 L94.1793103,106.868719 C94.1785714,106.866502 94.1785714,106.863547 94.1785714,106.860591 L94.1785714,106.856158 C94.1785714,106.853202 94.1785714,106.850246 94.1793103,106.84803 L94.1793103,106.847291 C94.1800493,106.843596 94.1807882,106.839901 94.1815271,106.836207 L94.182266,106.835468 C94.1830049,106.832512 94.1837438,106.829557 94.1852217,106.82734 L94.1859606,106.825123 L94.1874384,106.822167 L94.1896552,106.818473 L94.191133,106.815517 L94.191133,106.814778 C94.1933498,106.8133 94.1948276,106.810345 94.1963054,106.808128 L94.403202,106.549507" id="Fill-157" fill="#FFFFFF"></path>
            </g>
        </g>
    </g>
</svg>