<?xml version="1.0" encoding="UTF-8"?>
<svg width="208px" height="184px" viewBox="0 0 208 184" version="1.1" xmlns="http://www.w3.org/2000/svg" xmlns:xlink="http://www.w3.org/1999/xlink">
    <!-- Generator: Sketch 49 (51002) - http://www.bohemiancoding.com/sketch -->
    <title>default-image</title>
    <desc>Created with Sketch.</desc>
    <defs></defs>
    <g id="Page-1" stroke="none" stroke-width="1" fill="none" fill-rule="evenodd">
        <g id="default-image">
            <g id="faded" fill="#E8F6F8" fill-rule="nonzero">
                <path d="M149,101 L153,101 L153,105 L149,105 L149,101 Z M141,101 L145,101 L145,105 L141,105 L141,101 Z M133,101 L137,101 L137,105 L133,105 L133,101 Z M181,141 L133,141 L133,109 L181,109 L181,141 Z M181,105 L157,105 L157,101 L181,101 L181,105 Z M185,101 C185,98.8 183.2,97 181,97 L133,97 C130.8,97 129,98.8 129,101 L129,141 C129,143.2 130.8,145 133,145 L181,145 C183.2,145 185,143.2 185,141 L185,101 Z" id="4"></path>
                <path d="M15,135 L18,135 L18,138 L15,138 L15,135 Z M9,135 L12,135 L12,138 L9,138 L9,135 Z M3,135 L6,135 L6,138 L3,138 L3,135 Z M39,165 L3,165 L3,141 L39,141 L39,165 Z M39,138 L21,138 L21,135 L39,135 L39,138 Z M42,135 C42,133.35 40.65,132 39,132 L3,132 C1.35,132 0,133.35 0,135 L0,165 C0,166.65 1.35,168 3,168 L39,168 C40.65,168 42,166.65 42,165 L42,135 Z" id="3"></path>
                <path d="M75,87 L78,87 L78,90 L75,90 L75,87 Z M69,87 L72,87 L72,90 L69,90 L69,87 Z M63,87 L66,87 L66,90 L63,90 L63,87 Z M99,117 L63,117 L63,93 L99,93 L99,117 Z M99,90 L81,90 L81,87 L99,87 L99,90 Z M102,87 C102,85.35 100.65,84 99,84 L63,84 C61.35,84 60,85.35 60,87 L60,117 C60,118.65 61.35,120 63,120 L99,120 C100.65,120 102,118.65 102,117 L102,87 Z" id="3"></path>
                <path d="M190,71 L192,71 L192,73 L190,73 L190,71 Z M186,71 L188,71 L188,73 L186,73 L186,71 Z M182,71 L184,71 L184,73 L182,73 L182,71 Z M206,91 L182,91 L182,75 L206,75 L206,91 Z M206,73 L194,73 L194,71 L206,71 L206,73 Z M208,71 C208,69.9 207.1,69 206,69 L182,69 C180.9,69 180,69.9 180,71 L180,91 C180,92.1 180.9,93 182,93 L206,93 C207.1,93 208,92.1 208,91 L208,71 Z" id="2"></path>
                <path d="M22,79 L24,79 L24,81 L22,81 L22,79 Z M18,79 L20,79 L20,81 L18,81 L18,79 Z M14,79 L16,79 L16,81 L14,81 L14,79 Z M38,99 L14,99 L14,83 L38,83 L38,99 Z M38,81 L26,81 L26,79 L38,79 L38,81 Z M40,79 C40,77.9 39.1,77 38,77 L14,77 C12.9,77 12,77.9 12,79 L12,99 C12,100.1 12.9,101 14,101 L38,101 C39.1,101 40,100.1 40,99 L40,79 Z" id="2"></path>
                <path d="M92,162 L94,162 L94,164 L92,164 L92,162 Z M88,162 L90,162 L90,164 L88,164 L88,162 Z M84,162 L86,162 L86,164 L84,164 L84,162 Z M108,182 L84,182 L84,166 L108,166 L108,182 Z M108,164 L96,164 L96,162 L108,162 L108,164 Z M110,162 C110,160.9 109.1,160 108,160 L84,160 C82.9,160 82,160.9 82,162 L82,182 C82,183.1 82.9,184 84,184 L108,184 C109.1,184 110,183.1 110,182 L110,162 Z" id="2"></path>
                <path d="M162,2 L164,2 L164,4 L162,4 L162,2 Z M158,2 L160,2 L160,4 L158,4 L158,2 Z M154,2 L156,2 L156,4 L154,4 L154,2 Z M178,22 L154,22 L154,6 L178,6 L178,22 Z M178,4 L166,4 L166,2 L178,2 L178,4 Z M180,2 C180,0.9 179.1,0 178,0 L154,0 C152.9,0 152,0.9 152,2 L152,22 C152,23.1 152.9,24 154,24 L178,24 C179.1,24 180,23.1 180,22 L180,2 Z" id="2"></path>
                <path d="M88,5 L89,5 L89,6 L88,6 L88,5 Z M86,5 L87,5 L87,6 L86,6 L86,5 Z M84,5 L85,5 L85,6 L84,6 L84,5 Z M96,15 L84,15 L84,7 L96,7 L96,15 Z M96,6 L90,6 L90,5 L96,5 L96,6 Z M97,5 C97,4.45 96.55,4 96,4 L84,4 C83.45,4 83,4.45 83,5 L83,15 C83,15.55 83.45,16 84,16 L96,16 C96.55,16 97,15.55 97,15 L97,5 Z" id="1"></path>
                <path d="M146,165 L147,165 L147,166 L146,166 L146,165 Z M144,165 L145,165 L145,166 L144,166 L144,165 Z M142,165 L143,165 L143,166 L142,166 L142,165 Z M154,175 L142,175 L142,167 L154,167 L154,175 Z M154,166 L148,166 L148,165 L154,165 L154,166 Z M155,165 C155,164.45 154.55,164 154,164 L142,164 C141.45,164 141,164.45 141,165 L141,175 C141,175.55 141.45,176 142,176 L154,176 C154.55,176 155,175.55 155,175 L155,165 Z" id="1"></path>
                <path d="M5,15 L6,15 L6,16 L5,16 L5,15 Z M3,15 L4,15 L4,16 L3,16 L3,15 Z M1,15 L2,15 L2,16 L1,16 L1,15 Z M13,25 L1,25 L1,17 L13,17 L13,25 Z M13,16 L7,16 L7,15 L13,15 L13,16 Z M14,15 C14,14.45 13.55,14 13,14 L1,14 C0.45,14 0,14.45 0,15 L0,25 C0,25.55 0.45,26 1,26 L13,26 C13.55,26 14,25.55 14,25 L14,15 Z" id="1"></path>
            </g>
            <g id="main" transform="translate(9.000000, 17.000000)">
                <path d="M47.921115,6.63706195 L146.511159,6.63706195 C156.863389,6.63706195 165.333062,15.1067345 165.333062,25.4589646 L165.333062,124.049009 C165.333062,134.400504 156.863389,142.870912 146.511159,142.870912 L47.921115,142.870912 C37.568885,142.870912 29.0999469,134.400504 29.0999469,124.049009 L29.0999469,25.4589646 C29.0999469,15.1067345 37.568885,6.63706195 47.921115,6.63706195" id="Fill-275" stroke="#3B8594" fill="#A2C9EB"></path>
                <path d="M130.724265,93.3669204 C131.526354,93.4668142 132.258664,92.8983009 132.359292,92.0954779 C132.45992,91.2933894 131.891407,90.5610796 131.088584,90.4611858 C130.891735,90.4354779 130.694885,90.4031593 130.500239,90.361292 C128.810858,89.9999115 127.433646,89.0215398 126.53754,87.6817876 C125.62454,86.3163274 125.198522,84.5652478 125.432832,82.6893009 C125.462212,82.4498496 125.503345,82.2052566 125.556965,81.9555221 C126.024115,79.7740177 127.288212,77.9039469 128.953354,76.6471947 C130.595726,75.4066018 132.625186,74.7653717 134.649504,75.0180442 C135.088743,75.0723982 135.522106,75.1458496 135.949593,75.2376637 C139.713239,76.0426903 142.783504,78.2256637 144.783584,81.2173363 C146.802027,84.2354513 147.744407,88.0865044 147.232451,92.1953717 C147.16708,92.7190796 147.077469,93.2501327 146.96215,93.7870619 C145.953664,98.5026372 143.22054,102.543195 139.617018,105.263832 C136.037,107.967575 131.602009,109.362416 127.162611,108.809327 C126.481717,108.723389 125.811106,108.610274 125.150779,108.469248 C119.312867,107.220575 114.550283,103.833 111.444761,99.1886726 C108.322345,94.5186372 106.862867,88.5683451 107.653204,82.225823 C107.754566,81.4178584 107.892655,80.6010796 108.068938,79.7754867 C109.619496,72.5273097 113.822381,66.3147965 119.362814,62.1310088 C124.880478,57.9648496 131.721,55.8149292 138.574743,56.6699027 C139.497292,56.7844867 140.406619,56.938 141.299788,57.129708 C149.210496,58.8220265 155.666133,63.4142035 159.876363,69.7104513 C164.104221,76.0331416 166.080062,84.0834071 165.010611,92.6595841 C164.874726,93.7510708 164.688894,94.8550442 164.450912,95.9670973 C164.299602,96.6736991 164.685221,97.3700177 165.333062,97.6315044 L165.333062,73.6871062 C164.492044,71.7156726 163.478416,69.8419292 162.306133,68.088646 C157.677965,61.1673274 150.590646,56.1212212 141.912372,54.2651062 C140.943549,54.0572389 139.951956,53.8897699 138.939062,53.7634336 C131.306,52.8122389 123.710398,55.1891239 117.60292,59.7996637 C111.519681,64.3940442 106.905469,71.2110619 105.204336,79.1629027 C105.011159,80.0641504 104.85985,80.9646637 104.747469,81.8615044 C103.868257,88.9194425 105.509894,95.5675221 109.014991,100.810478 C112.538451,106.079876 117.933451,109.920646 124.53746,111.33385 C125.274177,111.491035 126.027788,111.618841 126.799027,111.715062 C132.017009,112.365106 137.20708,110.743301 141.376912,107.594442 C145.523239,104.463947 148.66769,99.8181504 149.826752,94.399646 C149.95823,93.7863274 150.061796,93.1722743 150.138186,92.5604248 C150.739752,87.7354071 149.613743,83.1865664 147.214088,79.5962655 C144.794602,75.9787876 141.093389,73.341885 136.562177,72.3730619 C136.059035,72.2650885 135.541938,72.1784159 135.013823,72.1123097 C132.209451,71.7626814 129.426381,72.6301416 127.19346,74.3158496 C124.984779,75.9839292 123.309354,78.4585044 122.693097,81.3429381 C122.622584,81.6683274 122.56823,81.9966549 122.526363,82.3257168 C122.203912,84.9163451 122.812088,87.3652124 124.10777,89.3035929 C125.421814,91.2676814 127.430708,92.6999823 129.887655,93.2258938 C130.157956,93.2839204 130.437071,93.3309292 130.724265,93.3669204" id="Fill-276" fill="#DBEEFF"></path>
                <path d="M161.789035,66.1913982 C163.212522,64.4968761 162.992903,61.9694159 161.298381,60.5459292 C159.603858,59.1224425 157.076398,59.3420619 155.652912,61.0373186 C154.229425,62.7311062 154.449044,65.2585664 156.143566,66.6820531 C157.838088,68.1055398 160.365549,67.8859204 161.789035,66.1913982" id="Fill-277" fill="#46749C"></path>
                <polyline id="Fill-278" fill="#46749C" points="165.333062 67.9725929 139.411354 46.1986814 138.233929 47.6008673 165.333062 70.3634336 165.333062 67.9725929"></polyline>
                <path d="M141.890336,49.4768142 C143.313823,47.782292 143.094204,45.2548319 141.399681,43.8320796 C139.705159,42.4085929 137.177699,42.6274779 135.754212,44.3227345 C134.330726,46.0172566 134.55108,48.5447168 136.245602,49.967469 C137.939389,51.3916903 140.46685,51.1713363 141.890336,49.4768142" id="Fill-279" fill="#46749C"></path>
                <path d="M113.92815,77.9568319 C115.995071,75.4962124 115.675558,71.8265841 113.214938,69.7596637 C110.755053,67.6927434 107.08469,68.0115221 105.01777,70.4721416 C102.95085,72.9327611 103.269628,76.6023894 105.730248,78.6693097 C108.190867,80.7362301 111.86123,80.4174513 113.92815,77.9568319" id="Fill-280" fill="#6690B5"></path>
                <path d="M112.647894,76.8815044 C114.120593,75.1282212 113.893628,72.5126195 112.139611,71.0399204 C110.386327,69.5664867 107.770726,69.7941858 106.298027,71.5482035 C104.825327,73.3007522 105.052292,75.916354 106.80631,77.3897876 C108.559593,78.8624867 111.175195,78.6347876 112.647894,76.8815044" id="Fill-281" fill="#DBEEFF"></path>
                <path d="M150.048575,105.634027 C152.115496,103.174142 151.796717,99.5037788 149.336097,97.4368584 C146.874743,95.3699381 143.205115,95.6887168 141.138195,98.1493363 C139.071274,100.61069 139.390788,104.280319 141.851407,106.347239 C144.311292,108.414159 147.981655,108.094646 150.048575,105.634027" id="Fill-282" fill="#6690B5"></path>
                <path d="M148.768319,104.558699 C150.241018,102.805416 150.013319,100.189814 148.26077,98.717115 C146.506752,97.2444159 143.89115,97.472115 142.419186,99.2253982 C140.945752,100.978681 141.173451,103.594283 142.926735,105.066982 C144.680018,106.539681 147.295619,106.311982 148.768319,104.558699" id="Fill-283" fill="#DBEEFF"></path>
                <path d="M134.919071,95.5278584 C136.985991,93.0672389 136.666478,89.3976106 134.205858,87.3299558 C131.745239,85.2630354 128.075611,85.5825487 126.00869,88.0439027 C123.94177,90.5037876 124.260549,94.1741504 126.721168,96.2410708 C129.182522,98.3079912 132.85215,97.9884779 134.919071,95.5278584" id="Fill-284" fill="#6690B5"></path>
                <path d="M133.638814,94.452531 C135.111513,92.6992478 134.883814,90.083646 133.130531,88.6109469 C131.377248,87.1382478 128.761646,87.3652124 127.288947,89.1184956 C125.816248,90.8725133 126.043212,93.4873805 127.796496,94.9608142 C129.549779,96.4335133 132.166115,96.2058142 133.638814,94.452531" id="Fill-285" fill="#DBEEFF"></path>
                <path d="M165.333062,91.3778584 C163.474009,91.1817434 161.552522,91.882469 160.259779,93.4220088 C158.192858,95.8826283 158.512372,99.5529912 160.972991,101.619912 C162.234885,102.679814 163.814088,103.111708 165.333062,102.950115 L165.333062,91.3778584" id="Fill-286" fill="#6690B5"></path>
                <path d="M165.333062,93.0643009 C163.953646,92.8571681 162.502982,93.3514956 161.540035,94.4973363 C160.067336,96.2506195 160.294301,98.8662212 162.048319,100.33892 C162.996575,101.135867 164.19677,101.434814 165.333062,101.263673 L165.333062,93.0643009" id="Fill-287" fill="#DBEEFF"></path>
                <path d="M120.039301,108.909221 C122.106221,106.448602 121.786708,102.778239 119.326088,100.711319 C116.865469,98.6443982 113.195106,98.9639115 111.12892,101.424531 C109.062,103.88515 109.380779,107.555513 111.841398,109.622434 C114.302018,111.689354 117.972381,111.369841 120.039301,108.909221" id="Fill-288" fill="#6690B5"></path>
                <path d="M118.759044,107.833894 C120.231009,106.079876 120.004044,103.465009 118.250761,101.991575 C116.496743,100.518876 113.881876,100.746575 112.409177,102.499858 C110.936478,104.253142 111.163442,106.868743 112.916726,108.341442 C114.670743,109.814876 117.285611,109.587177 118.759044,107.833894" id="Fill-289" fill="#DBEEFF"></path>
                <polyline id="Fill-290" fill="#4D4D4D" points="58.0162655 102.567434 81.0263628 102.567434 91.8119558 122.105487 47.2314071 122.105487 58.0162655 102.567434"></polyline>
                <path d="M15.300646,26.3117345 L123.741982,26.3117345 C126.793885,26.3117345 129.289761,28.8090796 129.289761,31.8602478 L129.289761,101.972478 C129.289761,105.023646 126.793885,107.520991 123.741982,107.520991 L15.300646,107.520991 C12.2502124,107.520991 9.75286726,105.023646 9.75286726,101.972478 L9.75286726,31.8602478 C9.75286726,28.8083451 12.2494779,26.3117345 15.300646,26.3117345" id="Fill-291" fill="#46749C"></path>
                <path d="M122.552805,101.896823 C122.950177,101.896823 123.273363,102.220009 123.273363,102.617381 C123.273363,103.014752 122.950177,103.337204 122.552805,103.337204 C122.155434,103.337204 121.832248,103.014752 121.832248,102.617381 C121.832248,102.220009 122.155434,101.896823 122.552805,101.896823" id="Fill-292" fill="#F5F5F5"></path>
                <path d="M119.739619,101.896823 C120.137726,101.896823 120.460177,102.220009 120.460177,102.617381 C120.460177,103.014752 120.137726,103.337204 119.739619,103.337204 C119.342248,103.337204 119.019062,103.014752 119.019062,102.617381 C119.019062,102.220009 119.342248,101.896823 119.739619,101.896823" id="Fill-293" fill="#F5F5F5"></path>
                <path d="M116.926434,101.896823 C117.32454,101.896823 117.646257,102.220009 117.646257,102.617381 C117.646257,103.014752 117.32454,103.337204 116.926434,103.337204 C116.528327,103.337204 116.205876,103.014752 116.205876,102.617381 C116.205876,102.220009 116.528327,101.896823 116.926434,101.896823" id="Fill-294" fill="#F5F5F5"></path>
                <path d="M3.34423894,116.200735 L135.698389,116.200735 C137.322398,116.200735 138.651133,117.529469 138.651133,119.152743 C138.651133,120.776752 137.322398,122.105487 135.698389,122.105487 L3.34423894,122.105487 C1.72023009,122.105487 0.391495575,120.776752 0.391495575,119.152743 C0.391495575,117.529469 1.72023009,116.200735 3.34423894,116.200735" id="Fill-295" fill="#46749C"></path>
                <path d="M138.651133,119.153478 C138.651133,120.777487 137.322398,122.105487 135.698389,122.105487 L3.34423894,122.105487 C1.72023009,122.105487 0.391495575,120.777487 0.391495575,119.153478 L138.651133,119.153478" id="Fill-296" fill="#4D4D4D"></path>
                <polygon id="Fill-297" fill="#FFFFFF" points="13.4357168 97.6131416 125.608381 97.6131416 125.608381 29.548 13.4357168 29.548"></polygon>
                <polygon id="Fill-298" fill="#91BDE3" points="20.8814779 35.442469 118.161885 35.442469 118.161885 29.548 20.8814779 29.548"></polygon>
                <polygon id="Fill-299" fill="#ED7B5C" points="46.8847168 48.0055841 92.158646 48.0055841 92.158646 39.0276283 46.8847168 39.0276283"></polygon>
                <polygon id="Fill-300" fill="#5896CC" points="20.8807434 83.2680973 118.162619 83.2680973 118.162619 58.5179381 20.8807434 58.5179381"></polygon>
                <polygon id="Fill-301" fill="#91BDE3" points="39.565292 55.279469 99.4780708 55.279469 99.4780708 51.5165575 39.565292 51.5165575"></polygon>
                <polygon id="Fill-302" fill="#FFD47F" points="26.7737434 97.6131416 51.2007168 97.6131416 51.2007168 88.2370796 26.7737434 88.2370796"></polygon>
                <polygon id="Fill-303" fill="#ED7B5C" points="57.3081947 97.6131416 81.7351681 97.6131416 81.7351681 88.2370796 57.3081947 88.2370796"></polygon>
                <polygon id="Fill-304" fill="#91BDE3" points="87.842646 97.6131416 112.270354 97.6131416 112.270354 88.2370796 87.842646 88.2370796"></polygon>
                <path d="M112.855027,69.3013274 C112.700779,69.1066814 112.733097,68.8238938 112.927743,68.6689115 C113.121655,68.5146637 113.405177,68.5469823 113.560159,68.7408938 L114.725832,70.2011062 C114.73685,70.2143274 114.746398,70.2275487 114.755212,70.2415044 L114.756681,70.243708 L114.767699,70.2620708 L114.776513,70.2782301 L114.778717,70.2819027 L114.786062,70.2980619 L114.791204,70.3090796 C114.797814,70.3245044 114.802956,70.3399292 114.808097,70.3560885 L114.809566,70.3604956 C114.815442,70.3810619 114.81985,70.4016283 114.822788,70.4221947 L114.822788,70.4258673 C114.824991,70.441292 114.82646,70.4567168 114.827195,70.4721416 L114.827195,70.4978496 C114.82646,70.5140088 114.824991,70.5294336 114.822788,70.5448584 L114.822788,70.548531 C114.819115,70.5690973 114.815442,70.5896637 114.809566,70.6102301 L114.808097,70.6146372 C114.802956,70.6307965 114.797814,70.6462212 114.791204,70.661646 L114.786062,70.6719292 L114.778717,70.688823 L114.776513,70.6924956 L114.767699,70.7086549 L114.756681,70.7270177 L114.755212,70.7292212 C114.746398,70.743177 114.73685,70.7563982 114.725832,70.7696195 L113.560159,72.2290973 C113.405177,72.4237434 113.121655,72.4560619 112.927743,72.3018142 C112.733097,72.1468319 112.700779,71.8633097 112.855027,71.6693982 L113.80108,70.4853628 L112.855027,69.3013274" id="Fill-305" fill="#FFFFFF"></path>
                <path d="M25.4832035,68.7408938 C25.6374513,68.5469823 25.9209735,68.5146637 26.1156195,68.6689115 C26.309531,68.8238938 26.3425841,69.1066814 26.1876018,69.3013274 L25.2422832,70.4853628 L26.1876018,71.6693982 C26.3425841,71.8633097 26.309531,72.1468319 26.1156195,72.3018142 C25.9209735,72.4560619 25.6374513,72.4237434 25.4832035,72.2290973 L24.3167965,70.7696195 C24.3065133,70.7563982 24.2969646,70.743177 24.2874159,70.7292212 L24.2859469,70.7270177 L24.2749292,70.7086549 L24.2668496,70.6924956 L24.264646,70.688823 L24.2565664,70.6719292 L24.2521593,70.661646 C24.2455487,70.6462212 24.2396726,70.6307965 24.2352655,70.6146372 L24.2337965,70.6102301 C24.2271858,70.5896637 24.2235133,70.5690973 24.2205752,70.548531 L24.2198407,70.5448584 C24.2176372,70.5294336 24.2161681,70.5140088 24.2161681,70.4978496 L24.2161681,70.4721416 C24.2161681,70.4567168 24.2176372,70.441292 24.2198407,70.4258673 L24.2205752,70.4221947 C24.2235133,70.4016283 24.2271858,70.3810619 24.2337965,70.3604956 L24.2352655,70.3560885 C24.2396726,70.3399292 24.2455487,70.3245044 24.2521593,70.3090796 L24.2565664,70.2980619 L24.264646,70.2819027 L24.2668496,70.2782301 L24.2749292,70.2620708 L24.2859469,70.243708 L24.2874159,70.2415044 C24.2969646,70.2275487 24.3065133,70.2143274 24.3167965,70.2011062 L25.4832035,68.7408938" id="Fill-306" fill="#FFFFFF"></path>
                <path d="M101.724947,39.1958319 L97.4456726,50.8856106 L108.961372,46.1575487 L145.456398,8.22434513 C146.500142,7.13873451 146.466354,5.39646903 145.381478,4.35199115 L142.091593,1.18770796 C141.005982,0.143230088 139.263717,0.177017699 138.219239,1.26262832 L101.724947,39.1958319" id="Fill-307" fill="#ED7B5C"></path>
                <path d="M101.724947,39.1958319 L97.4456726,50.8856106 L143.736168,2.76984956 L142.091593,1.18770796 C141.006717,0.143230088 139.263717,0.177017699 138.219973,1.26262832 L101.724947,39.1958319" id="Fill-308" fill="#FA9891"></path>
                <path d="M101.724947,39.1958319 L97.4456726,50.8856106 L108.961372,46.1575487 L142.660106,11.1300796 C140.528549,8.24564602 138.114204,5.96057522 135.423681,4.16836283 L101.724947,39.1958319" id="Fill-309" fill="#CCCCCC"></path>
                <path d="M101.724947,39.1958319 L97.4456726,50.8856106 L139.347451,7.3319115 C138.112735,6.13759292 136.804566,5.08870796 135.423681,4.16836283 L101.724947,39.1958319" id="Fill-310" fill="#FFFFFF"></path>
                <path d="M101.724947,39.1958319 L97.4456726,50.8856106 L108.961372,46.1575487 L140.438938,13.4386549 C138.322805,10.510885 135.90846,8.22728319 133.202513,6.47693805 L101.724947,39.1958319" id="Fill-311" fill="#ED7B5C"></path>
                <path d="M101.985699,38.9431593 L97.7402124,50.5411239 L137.132159,9.59641593 C135.904053,8.40650442 134.599558,7.37304425 133.217938,6.47914159 L101.985699,38.9431593" id="Fill-312" fill="#FA9891"></path>
                <path d="M101.724947,39.1958319 L97.4456726,50.8856106 L108.961372,46.1582832 C108.016788,44.8383628 106.913549,43.5559027 105.659,42.3490973 C104.403717,41.142292 103.079389,40.0882655 101.724947,39.1958319" id="Fill-313" fill="#CCCCCC"></path>
                <path d="M101.724947,39.1958319 L97.4456726,50.8856106 L105.659,42.3490973 C104.403717,41.1415575 103.079389,40.0882655 101.724947,39.1958319" id="Fill-314" fill="#FFFFFF"></path>
                <path d="M98.8596106,47.0235398 L97.4456726,50.8856106 L101.250451,49.3240354 C100.938283,48.8877345 100.573965,48.4646549 100.158965,48.0658142 C99.7446991,47.6662389 99.3076637,47.3188142 98.8596106,47.0235398" id="Fill-315" fill="#91BDE3"></path>
            </g>
        </g>
    </g>
</svg>